# Blender 4.5.3 LTS
# www.blender.org
mtllib techo.mtl
o Cube.022
v -42.381950 8.066795 -67.435577
v -42.381950 7.608694 -67.435577
v -42.381950 8.066795 -32.612186
v -42.381950 7.608694 -32.612186
v 0.876102 8.066792 -67.435577
v 0.876102 7.608690 -67.435577
v 0.876102 8.066792 -32.612186
v 0.876102 7.608690 -32.612186
v -42.381950 8.066795 -35.514137
v -42.381950 8.066795 -38.416088
v -42.381950 8.066795 -41.318035
v -42.381950 8.066795 -44.219986
v -42.381950 8.066795 -47.121937
v -42.381950 8.066795 -50.023884
v -42.381950 8.066795 -52.925835
v -42.381950 8.066795 -55.827782
v -42.381950 8.066795 -58.729733
v -42.381950 8.066795 -61.631683
v -42.381950 8.066795 -64.533630
v -42.381950 7.608694 -64.533630
v -42.381950 7.608694 -61.631683
v -42.381950 7.608694 -58.729733
v -42.381950 7.608694 -55.827782
v -42.381950 7.608694 -52.925831
v -42.381950 7.608694 -50.023884
v -42.381950 7.608694 -47.121933
v -42.381950 7.608694 -44.219986
v -42.381950 7.608694 -41.318035
v -42.381950 7.608694 -38.416084
v -42.381950 7.608694 -35.514137
v 0.876102 8.066792 -64.533630
v 0.876102 8.066792 -61.631683
v 0.876102 8.066792 -58.729733
v 0.876102 8.066792 -55.827782
v 0.876102 8.066792 -52.925831
v 0.876102 8.066792 -50.023884
v 0.876102 8.066792 -47.121933
v 0.876102 8.066792 -44.219986
v 0.876102 8.066792 -41.318035
v 0.876102 8.066792 -38.416084
v 0.876102 8.066792 -35.514137
v 0.876102 7.608690 -35.514137
v 0.876102 7.608690 -38.416088
v 0.876102 7.608690 -41.318035
v 0.876102 7.608690 -44.219986
v 0.876102 7.608690 -47.121937
v 0.876102 7.608690 -50.023884
v 0.876102 7.608690 -52.925835
v 0.876102 7.608690 -55.827782
v 0.876102 7.608690 -58.729733
v 0.876102 7.608690 -61.631683
v 0.876102 7.608690 -64.533630
v -2.007769 8.066792 -32.612186
v -4.891639 8.066792 -32.612186
v -7.775508 8.066792 -32.612186
v -10.659379 8.066792 -32.612186
v -13.543249 8.066793 -32.612186
v -16.427118 8.066793 -32.612186
v -19.310989 8.066793 -32.612186
v -22.194859 8.066793 -32.612186
v -25.078730 8.066794 -32.612186
v -27.962599 8.066794 -32.612186
v -30.846470 8.066794 -32.612186
v -33.730339 8.066795 -32.612186
v -36.614212 8.066795 -32.612186
v -39.498081 8.066795 -32.612186
v -39.498081 7.608693 -32.612186
v -36.614212 7.608693 -32.612186
v -33.730339 7.608693 -32.612186
v -30.846470 7.608693 -32.612186
v -27.962601 7.608692 -32.612186
v -25.078732 7.608692 -32.612186
v -22.194860 7.608692 -32.612186
v -19.310989 7.608692 -32.612186
v -16.427120 7.608691 -32.612186
v -13.543250 7.608691 -32.612186
v -10.659380 7.608691 -32.612186
v -7.775510 7.608690 -32.612186
v -4.891639 7.608690 -32.612186
v -2.007769 7.608690 -32.612186
v -39.498081 8.066795 -67.435577
v -36.614212 8.066795 -67.435577
v -33.730339 8.066795 -67.435577
v -30.846470 8.066794 -67.435577
v -27.962601 8.066794 -67.435577
v -25.078732 8.066794 -67.435577
v -22.194860 8.066793 -67.435577
v -19.310989 8.066793 -67.435577
v -16.427120 8.066793 -67.435577
v -13.543250 8.066793 -67.435577
v -10.659380 8.066792 -67.435577
v -7.775510 8.066792 -67.435577
v -4.891639 8.066792 -67.435577
v -2.007769 8.066792 -67.435577
v -2.007769 7.608690 -67.435577
v -4.891639 7.608690 -67.435577
v -7.775508 7.608690 -67.435577
v -10.659379 7.608691 -67.435577
v -13.543249 7.608691 -67.435577
v -16.427118 7.608691 -67.435577
v -19.310989 7.608692 -67.435577
v -22.194859 7.608692 -67.435577
v -25.078730 7.608692 -67.435577
v -27.962599 7.608692 -67.435577
v -30.846470 7.608693 -67.435577
v -33.730339 7.608693 -67.435577
v -36.614212 7.608693 -67.435577
v -39.498081 7.608693 -67.435577
v -39.498081 7.608693 -35.514137
v -36.614212 7.608693 -35.514137
v -33.730339 7.608693 -35.514137
v -30.846470 7.608693 -35.514137
v -27.962601 7.608692 -35.514137
v -25.078732 7.608692 -35.514137
v -22.194860 7.608692 -35.514137
v -19.310989 7.608692 -35.514137
v -16.427120 7.608691 -35.514137
v -13.543250 7.608691 -35.514137
v -10.659380 7.608691 -35.514137
v -7.775510 7.608690 -35.514137
v -4.891639 7.608690 -35.514137
v -2.007769 7.608690 -35.514137
v -39.498081 7.608693 -38.416084
v -36.614212 7.608693 -38.416084
v -33.730339 7.608693 -38.416084
v -30.846470 7.608693 -38.416084
v -27.962601 7.608692 -38.416084
v -25.078732 7.608692 -38.416084
v -22.194860 7.608692 -38.416084
v -19.310989 7.608692 -38.416084
v -16.427120 7.608691 -38.416084
v -13.543250 7.608691 -38.416084
v -10.659380 7.608691 -38.416084
v -7.775510 7.608690 -38.416084
v -4.891639 7.608690 -38.416084
v -2.007769 7.608690 -38.416088
v -39.498081 7.608693 -41.318035
v -36.614212 7.608693 -41.318035
v -33.730339 7.608693 -41.318035
v -30.846470 7.608693 -41.318035
v -27.962601 7.608692 -41.318035
v -25.078732 7.608692 -41.318035
v -22.194860 7.608692 -41.318035
v -19.310989 7.608692 -41.318035
v -16.427120 7.608691 -41.318035
v -13.543250 7.608691 -41.318035
v -10.659380 7.608691 -41.318035
v -7.775510 7.608690 -41.318035
v -4.891639 7.608690 -41.318035
v -2.007769 7.608690 -41.318035
v -39.498081 7.608693 -44.219986
v -36.614212 7.608693 -44.219986
v -33.730339 7.608693 -44.219986
v -30.846470 7.608693 -44.219986
v -27.962601 7.608692 -44.219986
v -25.078732 7.608692 -44.219986
v -22.194860 7.608692 -44.219986
v -19.310989 7.608692 -44.219986
v -16.427120 7.608691 -44.219986
v -13.543250 7.608691 -44.219986
v -10.659380 7.608691 -44.219986
v -7.775510 7.608690 -44.219986
v -4.891639 7.608690 -44.219986
v -2.007769 7.608690 -44.219986
v -39.498081 7.608693 -47.121933
v -36.614212 7.608693 -47.121933
v -33.730339 7.608693 -47.121933
v -30.846470 7.608693 -47.121933
v -27.962601 7.608692 -47.121933
v -25.078732 7.608692 -47.121933
v -22.194860 7.608692 -47.121933
v -19.310989 7.608692 -47.121933
v -16.427120 7.608691 -47.121937
v -13.543250 7.608691 -47.121937
v -10.659380 7.608691 -47.121937
v -7.775510 7.608690 -47.121937
v -4.891639 7.608690 -47.121937
v -2.007769 7.608690 -47.121937
v -39.498081 7.608693 -50.023884
v -36.614212 7.608693 -50.023884
v -33.730339 7.608693 -50.023884
v -30.846470 7.608693 -50.023884
v -27.962601 7.608692 -50.023884
v -25.078732 7.608692 -50.023884
v -22.194860 7.608692 -50.023884
v -19.310989 7.608692 -50.023884
v -16.427120 7.608691 -50.023884
v -13.543250 7.608691 -50.023884
v -10.659380 7.608691 -50.023884
v -7.775510 7.608690 -50.023884
v -4.891639 7.608690 -50.023884
v -2.007769 7.608690 -50.023884
v -39.498081 7.608693 -52.925835
v -36.614212 7.608693 -52.925835
v -33.730339 7.608693 -52.925835
v -30.846470 7.608693 -52.925835
v -27.962601 7.608692 -52.925835
v -25.078732 7.608692 -52.925835
v -22.194860 7.608692 -52.925835
v -19.310989 7.608692 -52.925835
v -16.427120 7.608691 -52.925835
v -13.543250 7.608691 -52.925835
v -10.659380 7.608691 -52.925835
v -7.775510 7.608690 -52.925835
v -4.891639 7.608690 -52.925835
v -2.007769 7.608690 -52.925835
v -39.498081 7.608693 -55.827782
v -36.614212 7.608693 -55.827782
v -33.730339 7.608693 -55.827782
v -30.846470 7.608693 -55.827782
v -27.962601 7.608692 -55.827782
v -25.078732 7.608692 -55.827782
v -22.194860 7.608692 -55.827782
v -19.310989 7.608692 -55.827782
v -16.427120 7.608691 -55.827782
v -13.543250 7.608691 -55.827782
v -10.659380 7.608691 -55.827782
v -7.775510 7.608690 -55.827782
v -4.891639 7.608690 -55.827782
v -2.007769 7.608690 -55.827782
v -39.498081 7.608693 -58.729733
v -36.614212 7.608693 -58.729733
v -33.730339 7.608693 -58.729733
v -30.846470 7.608693 -58.729733
v -27.962601 7.608692 -58.729733
v -25.078732 7.608692 -58.729733
v -22.194860 7.608692 -58.729733
v -19.310989 7.608692 -58.729733
v -16.427120 7.608691 -58.729733
v -13.543250 7.608691 -58.729733
v -10.659380 7.608691 -58.729733
v -7.775510 7.608690 -58.729733
v -4.891639 7.608690 -58.729733
v -2.007769 7.608690 -58.729733
v -39.498081 7.608693 -61.631683
v -36.614212 7.608693 -61.631683
v -33.730339 7.608693 -61.631683
v -30.846470 7.608693 -61.631683
v -27.962601 7.608692 -61.631683
v -25.078732 7.608692 -61.631683
v -22.194860 7.608692 -61.631683
v -19.310989 7.608692 -61.631683
v -16.427120 7.608691 -61.631683
v -13.543250 7.608691 -61.631683
v -10.659380 7.608691 -61.631683
v -7.775510 7.608690 -61.631683
v -4.891639 7.608690 -61.631683
v -2.007769 7.608690 -61.631683
v -39.498081 7.608693 -64.533630
v -36.614212 7.608693 -64.533630
v -33.730339 7.608693 -64.533630
v -30.846470 7.608693 -64.533630
v -27.962601 7.608692 -64.533630
v -25.078732 7.608692 -64.533630
v -22.194860 7.608692 -64.533630
v -19.310989 7.608692 -64.533630
v -16.427120 7.608691 -64.533630
v -13.543250 7.608691 -64.533630
v -10.659380 7.608691 -64.533630
v -7.775510 7.608690 -64.533630
v -4.891639 7.608690 -64.533630
v -2.007769 7.608690 -64.533630
v -2.007769 8.066792 -35.514137
v -4.891639 8.066792 -35.514137
v -7.775508 8.066792 -35.514137
v -10.659379 8.066792 -35.514137
v -13.543249 8.066793 -35.514137
v -16.427118 8.066793 -35.514137
v -19.310989 8.066793 -35.514137
v -22.194859 8.066793 -35.514137
v -25.078730 8.066794 -35.514137
v -27.962599 8.066794 -35.514137
v -30.846470 8.066794 -35.514137
v -33.730339 8.066795 -35.514137
v -36.614212 8.066795 -35.514137
v -39.498081 8.066795 -35.514137
v -2.007769 8.066792 -38.416084
v -4.891639 8.066792 -38.416084
v -7.775508 8.066792 -38.416084
v -10.659379 8.066792 -38.416084
v -13.543249 8.066793 -38.416084
v -16.427118 8.066793 -38.416084
v -19.310989 8.066793 -38.416084
v -22.194859 8.066793 -38.416084
v -25.078730 8.066794 -38.416084
v -27.962599 8.066794 -38.416084
v -30.846470 8.066794 -38.416084
v -33.730339 8.066795 -38.416084
v -36.614212 8.066795 -38.416084
v -39.498081 8.066795 -38.416088
v -2.007769 8.066792 -41.318035
v -4.891639 8.066792 -41.318035
v -7.775508 8.066792 -41.318035
v -10.659379 8.066792 -41.318035
v -13.543249 8.066793 -41.318035
v -16.427118 8.066793 -41.318035
v -19.310989 8.066793 -41.318035
v -22.194859 8.066793 -41.318035
v -25.078730 8.066794 -41.318035
v -27.962599 8.066794 -41.318035
v -30.846470 8.066794 -41.318035
v -33.730339 8.066795 -41.318035
v -36.614212 8.066795 -41.318035
v -39.498081 8.066795 -41.318035
v -2.007769 8.066792 -44.219986
v -4.891639 8.066792 -44.219986
v -7.775508 8.066792 -44.219986
v -10.659379 8.066792 -44.219986
v -13.543249 8.066793 -44.219986
v -16.427118 8.066793 -44.219986
v -19.310989 8.066793 -44.219986
v -22.194859 8.066793 -44.219986
v -25.078730 8.066794 -44.219986
v -27.962599 8.066794 -44.219986
v -30.846470 8.066794 -44.219986
v -33.730339 8.066795 -44.219986
v -36.614212 8.066795 -44.219986
v -39.498081 8.066795 -44.219986
v -2.007769 8.066792 -47.121933
v -4.891639 8.066792 -47.121933
v -7.775508 8.066792 -47.121933
v -10.659379 8.066792 -47.121933
v -13.543249 8.066793 -47.121933
v -16.427118 8.066793 -47.121933
v -19.310989 8.066793 -47.121933
v -22.194859 8.066793 -47.121933
v -25.078730 8.066794 -47.121937
v -27.962599 8.066794 -47.121937
v -30.846470 8.066794 -47.121937
v -33.730339 8.066795 -47.121937
v -36.614212 8.066795 -47.121937
v -39.498081 8.066795 -47.121937
v -2.007769 8.066792 -50.023884
v -4.891639 8.066792 -50.023884
v -7.775508 8.066792 -50.023884
v -10.659379 8.066792 -50.023884
v -13.543249 8.066793 -50.023884
v -16.427118 8.066793 -50.023884
v -19.310989 8.066793 -50.023884
v -22.194859 8.066793 -50.023884
v -25.078730 8.066794 -50.023884
v -27.962599 8.066794 -50.023884
v -30.846470 8.066794 -50.023884
v -33.730339 8.066795 -50.023884
v -36.614212 8.066795 -50.023884
v -39.498081 8.066795 -50.023884
v -2.007769 8.066792 -52.925835
v -4.891639 8.066792 -52.925835
v -7.775508 8.066792 -52.925835
v -10.659379 8.066792 -52.925835
v -13.543249 8.066793 -52.925835
v -16.427118 8.066793 -52.925835
v -19.310989 8.066793 -52.925835
v -22.194859 8.066793 -52.925835
v -25.078730 8.066794 -52.925835
v -27.962599 8.066794 -52.925835
v -30.846470 8.066794 -52.925835
v -33.730339 8.066795 -52.925835
v -36.614212 8.066795 -52.925835
v -39.498081 8.066795 -52.925835
v -2.007769 8.066792 -55.827782
v -4.891639 8.066792 -55.827782
v -7.775508 8.066792 -55.827782
v -10.659379 8.066792 -55.827782
v -13.543249 8.066793 -55.827782
v -16.427118 8.066793 -55.827782
v -19.310989 8.066793 -55.827782
v -22.194859 8.066793 -55.827782
v -25.078730 8.066794 -55.827782
v -27.962599 8.066794 -55.827782
v -30.846470 8.066794 -55.827782
v -33.730339 8.066795 -55.827782
v -36.614212 8.066795 -55.827782
v -39.498081 8.066795 -55.827782
v -2.007769 8.066792 -58.729733
v -4.891639 8.066792 -58.729733
v -7.775508 8.066792 -58.729733
v -10.659379 8.066792 -58.729733
v -13.543249 8.066793 -58.729733
v -16.427118 8.066793 -58.729733
v -19.310989 8.066793 -58.729733
v -22.194859 8.066793 -58.729733
v -25.078730 8.066794 -58.729733
v -27.962599 8.066794 -58.729733
v -30.846470 8.066794 -58.729733
v -33.730339 8.066795 -58.729733
v -36.614212 8.066795 -58.729733
v -39.498081 8.066795 -58.729733
v -2.007769 8.066792 -61.631683
v -4.891639 8.066792 -61.631683
v -7.775508 8.066792 -61.631683
v -10.659379 8.066792 -61.631683
v -13.543249 8.066793 -61.631683
v -16.427118 8.066793 -61.631683
v -19.310989 8.066793 -61.631683
v -22.194859 8.066793 -61.631683
v -25.078730 8.066794 -61.631683
v -27.962599 8.066794 -61.631683
v -30.846470 8.066794 -61.631683
v -33.730339 8.066795 -61.631683
v -36.614212 8.066795 -61.631683
v -39.498081 8.066795 -61.631683
v -2.007769 8.066792 -64.533630
v -4.891639 8.066792 -64.533630
v -7.775508 8.066792 -64.533630
v -10.659379 8.066792 -64.533630
v -13.543249 8.066793 -64.533630
v -16.427118 8.066793 -64.533630
v -19.310989 8.066793 -64.533630
v -22.194859 8.066793 -64.533630
v -25.078730 8.066794 -64.533630
v -27.962599 8.066794 -64.533630
v -30.846470 8.066794 -64.533630
v -33.730339 8.066795 -64.533630
v -36.614212 8.066795 -64.533630
v -39.498081 8.066795 -64.533630
v -42.381950 8.066795 -32.612186
v -42.381950 7.608694 -32.612186
v -42.381950 8.066795 2.211208
v -42.381950 7.608694 2.211208
v 0.876102 8.066792 -32.612186
v 0.876102 7.608690 -32.612186
v 0.876102 8.066792 2.211208
v 0.876102 7.608690 2.211208
v -42.381950 8.066795 -0.690742
v -42.381950 8.066795 -3.592693
v -42.381950 8.066795 -6.494640
v -42.381950 8.066795 -9.396591
v -42.381950 8.066795 -12.298542
v -42.381950 8.066795 -15.200489
v -42.381950 8.066795 -18.102442
v -42.381950 8.066795 -21.004391
v -42.381950 8.066795 -23.906338
v -42.381950 8.066795 -26.808289
v -42.381950 8.066795 -29.710239
v -42.381950 7.608694 -29.710238
v -42.381950 7.608694 -26.808287
v -42.381950 7.608694 -23.906338
v -42.381950 7.608694 -21.004389
v -42.381950 7.608694 -18.102438
v -42.381950 7.608694 -15.200489
v -42.381950 7.608694 -12.298542
v -42.381950 7.608694 -9.396591
v -42.381950 7.608694 -6.494640
v -42.381950 7.608694 -3.592693
v -42.381950 7.608694 -0.690739
v 0.876102 8.066792 -29.710238
v 0.876102 8.066792 -26.808287
v 0.876102 8.066792 -23.906338
v 0.876102 8.066792 -21.004389
v 0.876102 8.066792 -18.102438
v 0.876102 8.066792 -15.200489
v 0.876102 8.066792 -12.298542
v 0.876102 8.066792 -9.396591
v 0.876102 8.066792 -6.494640
v 0.876102 8.066792 -3.592693
v 0.876102 8.066792 -0.690739
v 0.876102 7.608690 -0.690742
v 0.876102 7.608690 -3.592693
v 0.876102 7.608690 -6.494640
v 0.876102 7.608690 -9.396591
v 0.876102 7.608690 -12.298542
v 0.876102 7.608690 -15.200489
v 0.876102 7.608690 -18.102442
v 0.876102 7.608690 -21.004391
v 0.876102 7.608690 -23.906338
v 0.876102 7.608690 -26.808289
v 0.876102 7.608690 -29.710239
v -2.007769 8.066792 2.211208
v -4.891639 8.066792 2.211208
v -7.775508 8.066792 2.211208
v -10.659379 8.066792 2.211208
v -13.543249 8.066793 2.211208
v -16.427118 8.066793 2.211208
v -19.310989 8.066793 2.211208
v -22.194859 8.066793 2.211208
v -25.078730 8.066794 2.211208
v -27.962599 8.066794 2.211208
v -30.846470 8.066794 2.211208
v -33.730339 8.066795 2.211208
v -36.614212 8.066795 2.211208
v -39.498081 8.066795 2.211208
v -39.498081 7.608693 2.211208
v -36.614212 7.608693 2.211208
v -33.730339 7.608693 2.211208
v -30.846470 7.608693 2.211208
v -27.962601 7.608692 2.211208
v -25.078732 7.608692 2.211208
v -22.194860 7.608692 2.211208
v -19.310989 7.608692 2.211208
v -16.427120 7.608691 2.211208
v -13.543250 7.608691 2.211208
v -10.659380 7.608691 2.211208
v -7.775510 7.608690 2.211208
v -4.891639 7.608690 2.211208
v -2.007769 7.608690 2.211208
v -39.498081 8.066795 -32.612186
v -36.614212 8.066795 -32.612186
v -33.730339 8.066795 -32.612186
v -30.846470 8.066794 -32.612186
v -27.962601 8.066794 -32.612186
v -25.078732 8.066794 -32.612186
v -22.194860 8.066793 -32.612186
v -19.310989 8.066793 -32.612186
v -16.427120 8.066793 -32.612186
v -13.543250 8.066793 -32.612186
v -10.659380 8.066792 -32.612186
v -7.775510 8.066792 -32.612186
v -4.891639 8.066792 -32.612186
v -2.007769 8.066792 -32.612186
v -2.007769 7.608690 -32.612186
v -4.891639 7.608690 -32.612186
v -7.775508 7.608690 -32.612186
v -10.659379 7.608691 -32.612186
v -13.543249 7.608691 -32.612186
v -16.427118 7.608691 -32.612186
v -19.310989 7.608692 -32.612186
v -22.194859 7.608692 -32.612186
v -25.078730 7.608692 -32.612186
v -27.962599 7.608692 -32.612186
v -30.846470 7.608693 -32.612186
v -33.730339 7.608693 -32.612186
v -36.614212 7.608693 -32.612186
v -39.498081 7.608693 -32.612186
v -39.498081 7.608693 -0.690739
v -36.614212 7.608693 -0.690739
v -33.730339 7.608693 -0.690739
v -30.846470 7.608693 -0.690739
v -27.962601 7.608692 -0.690739
v -25.078732 7.608692 -0.690739
v -22.194860 7.608692 -0.690739
v -19.310989 7.608692 -0.690739
v -16.427120 7.608691 -0.690739
v -13.543250 7.608691 -0.690739
v -10.659380 7.608691 -0.690739
v -7.775510 7.608690 -0.690739
v -4.891639 7.608690 -0.690739
v -2.007769 7.608690 -0.690739
v -39.498081 7.608693 -3.592693
v -36.614212 7.608693 -3.592693
v -33.730339 7.608693 -3.592693
v -30.846470 7.608693 -3.592693
v -27.962601 7.608692 -3.592693
v -25.078732 7.608692 -3.592693
v -22.194860 7.608692 -3.592693
v -19.310989 7.608692 -3.592693
v -16.427120 7.608691 -3.592693
v -13.543250 7.608691 -3.592693
v -10.659380 7.608691 -3.592693
v -7.775510 7.608690 -3.592693
v -4.891639 7.608690 -3.592693
v -2.007769 7.608690 -3.592693
v -39.498081 7.608693 -6.494640
v -36.614212 7.608693 -6.494640
v -33.730339 7.608693 -6.494640
v -30.846470 7.608693 -6.494640
v -27.962601 7.608692 -6.494640
v -25.078732 7.608692 -6.494640
v -22.194860 7.608692 -6.494640
v -19.310989 7.608692 -6.494640
v -16.427120 7.608691 -6.494640
v -13.543250 7.608691 -6.494640
v -10.659380 7.608691 -6.494640
v -7.775510 7.608690 -6.494640
v -4.891639 7.608690 -6.494640
v -2.007769 7.608690 -6.494640
v -39.498081 7.608693 -9.396591
v -36.614212 7.608693 -9.396591
v -33.730339 7.608693 -9.396591
v -30.846470 7.608693 -9.396591
v -27.962601 7.608692 -9.396591
v -25.078732 7.608692 -9.396591
v -22.194860 7.608692 -9.396591
v -19.310989 7.608692 -9.396591
v -16.427120 7.608691 -9.396591
v -13.543250 7.608691 -9.396591
v -10.659380 7.608691 -9.396591
v -7.775510 7.608690 -9.396591
v -4.891639 7.608690 -9.396591
v -2.007769 7.608690 -9.396591
v -39.498081 7.608693 -12.298542
v -36.614212 7.608693 -12.298542
v -33.730339 7.608693 -12.298542
v -30.846470 7.608693 -12.298542
v -27.962601 7.608692 -12.298542
v -25.078732 7.608692 -12.298542
v -22.194860 7.608692 -12.298542
v -19.310989 7.608692 -12.298542
v -16.427120 7.608691 -12.298542
v -13.543250 7.608691 -12.298542
v -10.659380 7.608691 -12.298542
v -7.775510 7.608690 -12.298542
v -4.891639 7.608690 -12.298542
v -2.007769 7.608690 -12.298542
v -39.498081 7.608693 -15.200489
v -36.614212 7.608693 -15.200489
v -33.730339 7.608693 -15.200489
v -30.846470 7.608693 -15.200489
v -27.962601 7.608692 -15.200489
v -25.078732 7.608692 -15.200489
v -22.194860 7.608692 -15.200489
v -19.310989 7.608692 -15.200489
v -16.427120 7.608691 -15.200489
v -13.543250 7.608691 -15.200489
v -10.659380 7.608691 -15.200489
v -7.775510 7.608690 -15.200489
v -4.891639 7.608690 -15.200489
v -2.007769 7.608690 -15.200489
v -39.498081 7.608693 -18.102438
v -36.614212 7.608693 -18.102438
v -33.730339 7.608693 -18.102438
v -30.846470 7.608693 -18.102438
v -27.962601 7.608692 -18.102438
v -25.078732 7.608692 -18.102438
v -22.194860 7.608692 -18.102438
v -19.310989 7.608692 -18.102438
v -16.427120 7.608691 -18.102438
v -13.543250 7.608691 -18.102438
v -10.659380 7.608691 -18.102442
v -7.775510 7.608690 -18.102442
v -4.891639 7.608690 -18.102442
v -2.007769 7.608690 -18.102442
v -39.498081 7.608693 -21.004389
v -36.614212 7.608693 -21.004389
v -33.730339 7.608693 -21.004389
v -30.846470 7.608693 -21.004389
v -27.962601 7.608692 -21.004389
v -25.078732 7.608692 -21.004389
v -22.194860 7.608692 -21.004389
v -19.310989 7.608692 -21.004389
v -16.427120 7.608691 -21.004389
v -13.543250 7.608691 -21.004389
v -10.659380 7.608691 -21.004389
v -7.775510 7.608690 -21.004389
v -4.891639 7.608690 -21.004389
v -2.007769 7.608690 -21.004391
v -39.498081 7.608693 -23.906338
v -36.614212 7.608693 -23.906338
v -33.730339 7.608693 -23.906338
v -30.846470 7.608693 -23.906338
v -27.962601 7.608692 -23.906338
v -25.078732 7.608692 -23.906338
v -22.194860 7.608692 -23.906338
v -19.310989 7.608692 -23.906338
v -16.427120 7.608691 -23.906338
v -13.543250 7.608691 -23.906338
v -10.659380 7.608691 -23.906338
v -7.775510 7.608690 -23.906338
v -4.891639 7.608690 -23.906338
v -2.007769 7.608690 -23.906338
v -39.498081 7.608693 -26.808287
v -36.614212 7.608693 -26.808287
v -33.730339 7.608693 -26.808287
v -30.846470 7.608693 -26.808287
v -27.962601 7.608692 -26.808287
v -25.078732 7.608692 -26.808287
v -22.194860 7.608692 -26.808287
v -19.310989 7.608692 -26.808287
v -16.427120 7.608691 -26.808287
v -13.543250 7.608691 -26.808287
v -10.659380 7.608691 -26.808287
v -7.775510 7.608690 -26.808287
v -4.891639 7.608690 -26.808287
v -2.007769 7.608690 -26.808287
v -39.498081 7.608693 -29.710238
v -36.614212 7.608693 -29.710238
v -33.730339 7.608693 -29.710238
v -30.846470 7.608693 -29.710238
v -27.962601 7.608692 -29.710238
v -25.078732 7.608692 -29.710238
v -22.194860 7.608692 -29.710238
v -19.310989 7.608692 -29.710238
v -16.427120 7.608691 -29.710238
v -13.543250 7.608691 -29.710238
v -10.659380 7.608691 -29.710238
v -7.775510 7.608690 -29.710238
v -4.891639 7.608690 -29.710238
v -2.007769 7.608690 -29.710239
v -2.007769 8.066792 -0.690739
v -4.891639 8.066792 -0.690739
v -7.775508 8.066792 -0.690739
v -10.659379 8.066792 -0.690739
v -13.543249 8.066793 -0.690739
v -16.427118 8.066793 -0.690739
v -19.310989 8.066793 -0.690739
v -22.194859 8.066793 -0.690739
v -25.078730 8.066794 -0.690739
v -27.962599 8.066794 -0.690739
v -30.846470 8.066794 -0.690739
v -33.730339 8.066795 -0.690739
v -36.614212 8.066795 -0.690739
v -39.498081 8.066795 -0.690739
v -2.007769 8.066792 -3.592693
v -4.891639 8.066792 -3.592693
v -7.775508 8.066792 -3.592693
v -10.659379 8.066792 -3.592693
v -13.543249 8.066793 -3.592693
v -16.427118 8.066793 -3.592693
v -19.310989 8.066793 -3.592693
v -22.194859 8.066793 -3.592693
v -25.078730 8.066794 -3.592693
v -27.962599 8.066794 -3.592693
v -30.846470 8.066794 -3.592693
v -33.730339 8.066795 -3.592693
v -36.614212 8.066795 -3.592693
v -39.498081 8.066795 -3.592693
v -2.007769 8.066792 -6.494640
v -4.891639 8.066792 -6.494640
v -7.775508 8.066792 -6.494640
v -10.659379 8.066792 -6.494640
v -13.543249 8.066793 -6.494640
v -16.427118 8.066793 -6.494640
v -19.310989 8.066793 -6.494640
v -22.194859 8.066793 -6.494640
v -25.078730 8.066794 -6.494640
v -27.962599 8.066794 -6.494640
v -30.846470 8.066794 -6.494640
v -33.730339 8.066795 -6.494640
v -36.614212 8.066795 -6.494640
v -39.498081 8.066795 -6.494640
v -2.007769 8.066792 -9.396591
v -4.891639 8.066792 -9.396591
v -7.775508 8.066792 -9.396591
v -10.659379 8.066792 -9.396591
v -13.543249 8.066793 -9.396591
v -16.427118 8.066793 -9.396591
v -19.310989 8.066793 -9.396591
v -22.194859 8.066793 -9.396591
v -25.078730 8.066794 -9.396591
v -27.962599 8.066794 -9.396591
v -30.846470 8.066794 -9.396591
v -33.730339 8.066795 -9.396591
v -36.614212 8.066795 -9.396591
v -39.498081 8.066795 -9.396591
v -2.007769 8.066792 -12.298542
v -4.891639 8.066792 -12.298542
v -7.775508 8.066792 -12.298542
v -10.659379 8.066792 -12.298542
v -13.543249 8.066793 -12.298542
v -16.427118 8.066793 -12.298542
v -19.310989 8.066793 -12.298542
v -22.194859 8.066793 -12.298542
v -25.078730 8.066794 -12.298542
v -27.962599 8.066794 -12.298542
v -30.846470 8.066794 -12.298542
v -33.730339 8.066795 -12.298542
v -36.614212 8.066795 -12.298542
v -39.498081 8.066795 -12.298542
v -2.007769 8.066792 -15.200489
v -4.891639 8.066792 -15.200489
v -7.775508 8.066792 -15.200489
v -10.659379 8.066792 -15.200489
v -13.543249 8.066793 -15.200489
v -16.427118 8.066793 -15.200489
v -19.310989 8.066793 -15.200489
v -22.194859 8.066793 -15.200489
v -25.078730 8.066794 -15.200489
v -27.962599 8.066794 -15.200489
v -30.846470 8.066794 -15.200489
v -33.730339 8.066795 -15.200489
v -36.614212 8.066795 -15.200489
v -39.498081 8.066795 -15.200489
v -2.007769 8.066792 -18.102438
v -4.891639 8.066792 -18.102438
v -7.775508 8.066792 -18.102438
v -10.659379 8.066792 -18.102438
v -13.543249 8.066793 -18.102438
v -16.427118 8.066793 -18.102438
v -19.310989 8.066793 -18.102438
v -22.194859 8.066793 -18.102438
v -25.078730 8.066794 -18.102438
v -27.962599 8.066794 -18.102438
v -30.846470 8.066794 -18.102442
v -33.730339 8.066795 -18.102442
v -36.614212 8.066795 -18.102442
v -39.498081 8.066795 -18.102442
v -2.007769 8.066792 -21.004389
v -4.891639 8.066792 -21.004389
v -7.775508 8.066792 -21.004389
v -10.659379 8.066792 -21.004389
v -13.543249 8.066793 -21.004389
v -16.427118 8.066793 -21.004389
v -19.310989 8.066793 -21.004389
v -22.194859 8.066793 -21.004389
v -25.078730 8.066794 -21.004389
v -27.962599 8.066794 -21.004389
v -30.846470 8.066794 -21.004389
v -33.730339 8.066795 -21.004389
v -36.614212 8.066795 -21.004389
v -39.498081 8.066795 -21.004391
v -2.007769 8.066792 -23.906338
v -4.891639 8.066792 -23.906338
v -7.775508 8.066792 -23.906338
v -10.659379 8.066792 -23.906338
v -13.543249 8.066793 -23.906338
v -16.427118 8.066793 -23.906338
v -19.310989 8.066793 -23.906338
v -22.194859 8.066793 -23.906338
v -25.078730 8.066794 -23.906338
v -27.962599 8.066794 -23.906338
v -30.846470 8.066794 -23.906338
v -33.730339 8.066795 -23.906338
v -36.614212 8.066795 -23.906338
v -39.498081 8.066795 -23.906338
v -2.007769 8.066792 -26.808287
v -4.891639 8.066792 -26.808287
v -7.775508 8.066792 -26.808287
v -10.659379 8.066792 -26.808287
v -13.543249 8.066793 -26.808287
v -16.427118 8.066793 -26.808287
v -19.310989 8.066793 -26.808287
v -22.194859 8.066793 -26.808287
v -25.078730 8.066794 -26.808287
v -27.962599 8.066794 -26.808287
v -30.846470 8.066794 -26.808287
v -33.730339 8.066795 -26.808287
v -36.614212 8.066795 -26.808287
v -39.498081 8.066795 -26.808287
v -2.007769 8.066792 -29.710238
v -4.891639 8.066792 -29.710238
v -7.775508 8.066792 -29.710238
v -10.659379 8.066792 -29.710238
v -13.543249 8.066793 -29.710238
v -16.427118 8.066793 -29.710238
v -19.310989 8.066793 -29.710238
v -22.194859 8.066793 -29.710238
v -25.078730 8.066794 -29.710238
v -27.962599 8.066794 -29.710238
v -30.846470 8.066794 -29.710238
v -33.730339 8.066795 -29.710238
v -36.614212 8.066795 -29.710238
v -39.498081 8.066795 -29.710239
vn -1.0000 -0.0000 -0.0000
vn -0.0000 -0.0000 1.0000
vn 1.0000 -0.0000 -0.0000
vn -0.0000 -0.0000 -1.0000
vn -0.0000 1.0000 -0.0000
vn -0.0000 -1.0000 -0.0000
vt 0.375000 0.229167
vt 0.625000 0.229167
vt 0.625000 0.250000
vt 0.375000 0.250000
vt 0.375000 0.483333
vt 0.625000 0.483333
vt 0.625000 0.500000
vt 0.375000 0.500000
vt 0.375000 0.729167
vt 0.625000 0.729167
vt 0.625000 0.750000
vt 0.375000 0.750000
vt 0.375000 0.983333
vt 0.625000 0.983333
vt 0.625000 1.000000
vt 0.375000 1.000000
vt 0.358333 0.729167
vt 0.358333 0.750000
vt 0.858333 0.729167
vt 0.875000 0.729167
vt 0.875000 0.750000
vt 0.858333 0.750000
vt 0.858333 0.500000
vt 0.875000 0.500000
vt 0.875000 0.520833
vt 0.858333 0.520833
vt 0.875000 0.541667
vt 0.858333 0.541667
vt 0.875000 0.562500
vt 0.858333 0.562500
vt 0.875000 0.583333
vt 0.858333 0.583333
vt 0.875000 0.604167
vt 0.858333 0.604167
vt 0.875000 0.625000
vt 0.858333 0.625000
vt 0.875000 0.645833
vt 0.858333 0.645833
vt 0.875000 0.666667
vt 0.858333 0.666667
vt 0.875000 0.687500
vt 0.858333 0.687500
vt 0.875000 0.708333
vt 0.858333 0.708333
vt 0.358333 0.500000
vt 0.375000 0.520833
vt 0.358333 0.520833
vt 0.375000 0.541667
vt 0.358333 0.541667
vt 0.375000 0.562500
vt 0.358333 0.562500
vt 0.375000 0.583333
vt 0.358333 0.583333
vt 0.375000 0.604167
vt 0.358333 0.604167
vt 0.375000 0.625000
vt 0.358333 0.625000
vt 0.375000 0.645833
vt 0.358333 0.645833
vt 0.375000 0.666667
vt 0.358333 0.666667
vt 0.375000 0.687500
vt 0.358333 0.687500
vt 0.375000 0.708333
vt 0.358333 0.708333
vt 0.625000 0.520833
vt 0.625000 0.541667
vt 0.625000 0.562500
vt 0.625000 0.583333
vt 0.625000 0.604167
vt 0.625000 0.625000
vt 0.625000 0.645833
vt 0.625000 0.666667
vt 0.625000 0.687500
vt 0.625000 0.708333
vt 0.375000 0.000000
vt 0.625000 0.000000
vt 0.625000 0.020833
vt 0.375000 0.020833
vt 0.625000 0.041667
vt 0.375000 0.041667
vt 0.625000 0.062500
vt 0.375000 0.062500
vt 0.625000 0.083333
vt 0.375000 0.083333
vt 0.625000 0.104167
vt 0.375000 0.104167
vt 0.625000 0.125000
vt 0.375000 0.125000
vt 0.625000 0.145833
vt 0.375000 0.145833
vt 0.625000 0.166667
vt 0.375000 0.166667
vt 0.625000 0.187500
vt 0.375000 0.187500
vt 0.625000 0.208333
vt 0.375000 0.208333
vt 0.125000 0.708333
vt 0.141667 0.708333
vt 0.141667 0.729167
vt 0.125000 0.729167
vt 0.158333 0.708333
vt 0.158333 0.729167
vt 0.175000 0.708333
vt 0.175000 0.729167
vt 0.191667 0.708333
vt 0.191667 0.729167
vt 0.208333 0.708333
vt 0.208333 0.729167
vt 0.225000 0.708333
vt 0.225000 0.729167
vt 0.241667 0.708333
vt 0.241667 0.729167
vt 0.258333 0.708333
vt 0.258333 0.729167
vt 0.275000 0.708333
vt 0.275000 0.729167
vt 0.291667 0.708333
vt 0.291667 0.729167
vt 0.308333 0.708333
vt 0.308333 0.729167
vt 0.325000 0.708333
vt 0.325000 0.729167
vt 0.341667 0.708333
vt 0.341667 0.729167
vt 0.125000 0.687500
vt 0.141667 0.687500
vt 0.158333 0.687500
vt 0.175000 0.687500
vt 0.191667 0.687500
vt 0.208333 0.687500
vt 0.225000 0.687500
vt 0.241667 0.687500
vt 0.258333 0.687500
vt 0.275000 0.687500
vt 0.291667 0.687500
vt 0.308333 0.687500
vt 0.325000 0.687500
vt 0.341667 0.687500
vt 0.125000 0.666667
vt 0.141667 0.666667
vt 0.158333 0.666667
vt 0.175000 0.666667
vt 0.191667 0.666667
vt 0.208333 0.666667
vt 0.225000 0.666667
vt 0.241667 0.666667
vt 0.258333 0.666667
vt 0.275000 0.666667
vt 0.291667 0.666667
vt 0.308333 0.666667
vt 0.325000 0.666667
vt 0.341667 0.666667
vt 0.125000 0.645833
vt 0.141667 0.645833
vt 0.158333 0.645833
vt 0.175000 0.645833
vt 0.191667 0.645833
vt 0.208333 0.645833
vt 0.225000 0.645833
vt 0.241667 0.645833
vt 0.258333 0.645833
vt 0.275000 0.645833
vt 0.291667 0.645833
vt 0.308333 0.645833
vt 0.325000 0.645833
vt 0.341667 0.645833
vt 0.125000 0.625000
vt 0.141667 0.625000
vt 0.158333 0.625000
vt 0.175000 0.625000
vt 0.191667 0.625000
vt 0.208333 0.625000
vt 0.225000 0.625000
vt 0.241667 0.625000
vt 0.258333 0.625000
vt 0.275000 0.625000
vt 0.291667 0.625000
vt 0.308333 0.625000
vt 0.325000 0.625000
vt 0.341667 0.625000
vt 0.125000 0.604167
vt 0.141667 0.604167
vt 0.158333 0.604167
vt 0.175000 0.604167
vt 0.191667 0.604167
vt 0.208333 0.604167
vt 0.225000 0.604167
vt 0.241667 0.604167
vt 0.258333 0.604167
vt 0.275000 0.604167
vt 0.291667 0.604167
vt 0.308333 0.604167
vt 0.325000 0.604167
vt 0.341667 0.604167
vt 0.125000 0.583333
vt 0.141667 0.583333
vt 0.158333 0.583333
vt 0.175000 0.583333
vt 0.191667 0.583333
vt 0.208333 0.583333
vt 0.225000 0.583333
vt 0.241667 0.583333
vt 0.258333 0.583333
vt 0.275000 0.583333
vt 0.291667 0.583333
vt 0.308333 0.583333
vt 0.325000 0.583333
vt 0.341667 0.583333
vt 0.125000 0.562500
vt 0.141667 0.562500
vt 0.158333 0.562500
vt 0.175000 0.562500
vt 0.191667 0.562500
vt 0.208333 0.562500
vt 0.225000 0.562500
vt 0.241667 0.562500
vt 0.258333 0.562500
vt 0.275000 0.562500
vt 0.291667 0.562500
vt 0.308333 0.562500
vt 0.325000 0.562500
vt 0.341667 0.562500
vt 0.125000 0.541667
vt 0.141667 0.541667
vt 0.158333 0.541667
vt 0.175000 0.541667
vt 0.191667 0.541667
vt 0.208333 0.541667
vt 0.225000 0.541667
vt 0.241667 0.541667
vt 0.258333 0.541667
vt 0.275000 0.541667
vt 0.291667 0.541667
vt 0.308333 0.541667
vt 0.325000 0.541667
vt 0.341667 0.541667
vt 0.125000 0.520833
vt 0.141667 0.520833
vt 0.158333 0.520833
vt 0.175000 0.520833
vt 0.191667 0.520833
vt 0.208333 0.520833
vt 0.225000 0.520833
vt 0.241667 0.520833
vt 0.258333 0.520833
vt 0.275000 0.520833
vt 0.291667 0.520833
vt 0.308333 0.520833
vt 0.325000 0.520833
vt 0.341667 0.520833
vt 0.125000 0.500000
vt 0.141667 0.500000
vt 0.158333 0.500000
vt 0.175000 0.500000
vt 0.191667 0.500000
vt 0.208333 0.500000
vt 0.225000 0.500000
vt 0.241667 0.500000
vt 0.258333 0.500000
vt 0.275000 0.500000
vt 0.291667 0.500000
vt 0.308333 0.500000
vt 0.325000 0.500000
vt 0.341667 0.500000
vt 0.641667 0.708333
vt 0.641667 0.729167
vt 0.658333 0.708333
vt 0.658333 0.729167
vt 0.675000 0.708333
vt 0.675000 0.729167
vt 0.691667 0.708333
vt 0.691667 0.729167
vt 0.708333 0.708333
vt 0.708333 0.729167
vt 0.725000 0.708333
vt 0.725000 0.729167
vt 0.741667 0.708333
vt 0.741667 0.729167
vt 0.758333 0.708333
vt 0.758333 0.729167
vt 0.775000 0.708333
vt 0.775000 0.729167
vt 0.791667 0.708333
vt 0.791667 0.729167
vt 0.808333 0.708333
vt 0.808334 0.729167
vt 0.825000 0.708333
vt 0.825000 0.729167
vt 0.841667 0.708333
vt 0.841667 0.729167
vt 0.641667 0.687500
vt 0.658333 0.687500
vt 0.675000 0.687500
vt 0.691667 0.687500
vt 0.708333 0.687500
vt 0.725000 0.687500
vt 0.741667 0.687500
vt 0.758333 0.687500
vt 0.775000 0.687500
vt 0.791667 0.687500
vt 0.808333 0.687500
vt 0.825000 0.687500
vt 0.841667 0.687500
vt 0.641667 0.666667
vt 0.658333 0.666667
vt 0.675000 0.666667
vt 0.691667 0.666667
vt 0.708333 0.666667
vt 0.725000 0.666667
vt 0.741667 0.666667
vt 0.758333 0.666667
vt 0.775000 0.666667
vt 0.791667 0.666667
vt 0.808333 0.666667
vt 0.825000 0.666667
vt 0.841667 0.666667
vt 0.641667 0.645833
vt 0.658333 0.645833
vt 0.675000 0.645833
vt 0.691667 0.645833
vt 0.708333 0.645833
vt 0.725000 0.645833
vt 0.741667 0.645833
vt 0.758333 0.645833
vt 0.775000 0.645833
vt 0.791667 0.645833
vt 0.808333 0.645833
vt 0.825000 0.645833
vt 0.841667 0.645833
vt 0.641667 0.625000
vt 0.658333 0.625000
vt 0.675000 0.625000
vt 0.691667 0.625000
vt 0.708333 0.625000
vt 0.725000 0.625000
vt 0.741667 0.625000
vt 0.758333 0.625000
vt 0.775000 0.625000
vt 0.791667 0.625000
vt 0.808333 0.625000
vt 0.825000 0.625000
vt 0.841667 0.625000
vt 0.641667 0.604167
vt 0.658333 0.604167
vt 0.675000 0.604167
vt 0.691667 0.604167
vt 0.708333 0.604167
vt 0.725000 0.604167
vt 0.741667 0.604167
vt 0.758333 0.604167
vt 0.775000 0.604167
vt 0.791667 0.604167
vt 0.808333 0.604167
vt 0.825000 0.604167
vt 0.841667 0.604167
vt 0.641667 0.583333
vt 0.658333 0.583333
vt 0.675000 0.583333
vt 0.691667 0.583333
vt 0.708333 0.583333
vt 0.725000 0.583333
vt 0.741667 0.583333
vt 0.758333 0.583333
vt 0.775000 0.583333
vt 0.791667 0.583333
vt 0.808333 0.583333
vt 0.825000 0.583333
vt 0.841667 0.583333
vt 0.641667 0.562500
vt 0.658333 0.562500
vt 0.675000 0.562500
vt 0.691667 0.562500
vt 0.708333 0.562500
vt 0.725000 0.562500
vt 0.741667 0.562500
vt 0.758333 0.562500
vt 0.775000 0.562500
vt 0.791667 0.562500
vt 0.808333 0.562500
vt 0.825000 0.562500
vt 0.841667 0.562500
vt 0.641667 0.541667
vt 0.658333 0.541667
vt 0.675000 0.541667
vt 0.691667 0.541667
vt 0.708333 0.541667
vt 0.725000 0.541667
vt 0.741667 0.541667
vt 0.758333 0.541667
vt 0.775000 0.541667
vt 0.791667 0.541667
vt 0.808333 0.541667
vt 0.825000 0.541667
vt 0.841667 0.541667
vt 0.641667 0.520833
vt 0.658333 0.520833
vt 0.675000 0.520833
vt 0.691667 0.520833
vt 0.708333 0.520833
vt 0.725000 0.520833
vt 0.741667 0.520833
vt 0.758333 0.520833
vt 0.775000 0.520833
vt 0.791667 0.520833
vt 0.808333 0.520833
vt 0.825000 0.520833
vt 0.841667 0.520833
vt 0.641667 0.500000
vt 0.658333 0.500000
vt 0.675000 0.500000
vt 0.691667 0.500000
vt 0.708333 0.500000
vt 0.725000 0.500000
vt 0.741667 0.500000
vt 0.758333 0.500000
vt 0.775000 0.500000
vt 0.791667 0.500000
vt 0.808333 0.500000
vt 0.825000 0.500000
vt 0.841667 0.500000
vt 0.641667 0.750000
vt 0.658333 0.750000
vt 0.675000 0.750000
vt 0.691667 0.750000
vt 0.708333 0.750000
vt 0.725000 0.750000
vt 0.741667 0.750000
vt 0.758333 0.750000
vt 0.775000 0.750000
vt 0.791667 0.750000
vt 0.808333 0.750000
vt 0.825000 0.750000
vt 0.841667 0.750000
vt 0.141667 0.750000
vt 0.125000 0.750000
vt 0.158333 0.750000
vt 0.175000 0.750000
vt 0.191667 0.750000
vt 0.208333 0.750000
vt 0.225000 0.750000
vt 0.241667 0.750000
vt 0.258333 0.750000
vt 0.275000 0.750000
vt 0.291667 0.750000
vt 0.308333 0.750000
vt 0.325000 0.750000
vt 0.341667 0.750000
vt 0.625000 0.766667
vt 0.375000 0.766667
vt 0.625000 0.783333
vt 0.375000 0.783333
vt 0.625000 0.800000
vt 0.375000 0.800000
vt 0.625000 0.816667
vt 0.375000 0.816667
vt 0.625000 0.833333
vt 0.375000 0.833333
vt 0.625000 0.850000
vt 0.375000 0.850000
vt 0.625000 0.866667
vt 0.375000 0.866667
vt 0.625000 0.883333
vt 0.375000 0.883333
vt 0.625000 0.900000
vt 0.375000 0.900000
vt 0.625000 0.916667
vt 0.375000 0.916667
vt 0.625000 0.933333
vt 0.375000 0.933333
vt 0.625000 0.950000
vt 0.375000 0.950000
vt 0.625000 0.966667
vt 0.375000 0.966667
vt 0.625000 0.266667
vt 0.375000 0.266667
vt 0.625000 0.283333
vt 0.375000 0.283333
vt 0.625000 0.300000
vt 0.375000 0.300000
vt 0.625000 0.316667
vt 0.375000 0.316667
vt 0.625000 0.333333
vt 0.375000 0.333333
vt 0.625000 0.350000
vt 0.375000 0.350000
vt 0.625000 0.366667
vt 0.375000 0.366667
vt 0.625000 0.383333
vt 0.375000 0.383333
vt 0.625000 0.400000
vt 0.375000 0.400000
vt 0.625000 0.416667
vt 0.375000 0.416667
vt 0.625000 0.433333
vt 0.375000 0.433333
vt 0.625000 0.450000
vt 0.375000 0.450000
vt 0.625000 0.466667
vt 0.375000 0.466667
s 0
usemtl Material.038
f 67/23/6 4/24/6 30/25/6 109/26/6
f 123/28/6 29/27/6 28/29/6 137/30/6
f 151/32/6 27/31/6 26/33/6 165/34/6
f 179/36/6 25/35/6 24/37/6 193/38/6
f 207/40/6 23/39/6 22/41/6 221/42/6
f 235/44/6 21/43/6 20/20/6 249/19/6
f 51/75/6 248/266/6 262/267/6 52/10/6
f 247/268/6 246/270/6 260/271/6 261/269/6
f 245/272/6 244/274/6 258/275/6 259/273/6
f 243/276/6 242/278/6 256/279/6 257/277/6
f 241/280/6 240/282/6 254/283/6 255/281/6
f 239/284/6 238/286/6 252/287/6 253/285/6
f 237/288/6 236/290/6 250/291/6 251/289/6
f 234/292/6 233/293/6 247/268/6 248/266/6
f 232/294/6 231/295/6 245/272/6 246/270/6
f 230/296/6 229/297/6 243/276/6 244/274/6
f 228/298/6 227/299/6 241/280/6 242/278/6
f 226/300/6 225/301/6 239/284/6 240/282/6
f 224/302/6 223/303/6 237/288/6 238/286/6
f 222/304/6 221/42/6 235/44/6 236/290/6
f 49/73/6 220/305/6 234/292/6 50/74/6
f 219/306/6 218/307/6 232/294/6 233/293/6
f 217/308/6 216/309/6 230/296/6 231/295/6
f 215/310/6 214/311/6 228/298/6 229/297/6
f 213/312/6 212/313/6 226/300/6 227/299/6
f 211/314/6 210/315/6 224/302/6 225/301/6
f 209/316/6 208/317/6 222/304/6 223/303/6
f 206/318/6 205/319/6 219/306/6 220/305/6
f 204/320/6 203/321/6 217/308/6 218/307/6
f 202/322/6 201/323/6 215/310/6 216/309/6
f 200/324/6 199/325/6 213/312/6 214/311/6
f 198/326/6 197/327/6 211/314/6 212/313/6
f 196/328/6 195/329/6 209/316/6 210/315/6
f 194/330/6 193/38/6 207/40/6 208/317/6
f 47/71/6 192/331/6 206/318/6 48/72/6
f 191/332/6 190/333/6 204/320/6 205/319/6
f 189/334/6 188/335/6 202/322/6 203/321/6
f 187/336/6 186/337/6 200/324/6 201/323/6
f 185/338/6 184/339/6 198/326/6 199/325/6
f 183/340/6 182/341/6 196/328/6 197/327/6
f 181/342/6 180/343/6 194/330/6 195/329/6
f 178/344/6 177/345/6 191/332/6 192/331/6
f 176/346/6 175/347/6 189/334/6 190/333/6
f 174/348/6 173/349/6 187/336/6 188/335/6
f 172/350/6 171/351/6 185/338/6 186/337/6
f 170/352/6 169/353/6 183/340/6 184/339/6
f 168/354/6 167/355/6 181/342/6 182/341/6
f 166/356/6 165/34/6 179/36/6 180/343/6
f 45/69/6 164/357/6 178/344/6 46/70/6
f 163/358/6 162/359/6 176/346/6 177/345/6
f 161/360/6 160/361/6 174/348/6 175/347/6
f 159/362/6 158/363/6 172/350/6 173/349/6
f 157/364/6 156/365/6 170/352/6 171/351/6
f 155/366/6 154/367/6 168/354/6 169/353/6
f 153/368/6 152/369/6 166/356/6 167/355/6
f 150/370/6 149/371/6 163/358/6 164/357/6
f 148/372/6 147/373/6 161/360/6 162/359/6
f 146/374/6 145/375/6 159/362/6 160/361/6
f 144/376/6 143/377/6 157/364/6 158/363/6
f 142/378/6 141/379/6 155/366/6 156/365/6
f 140/380/6 139/381/6 153/368/6 154/367/6
f 138/382/6 137/30/6 151/32/6 152/369/6
f 43/67/6 136/383/6 150/370/6 44/68/6
f 135/384/6 134/385/6 148/372/6 149/371/6
f 133/386/6 132/387/6 146/374/6 147/373/6
f 131/388/6 130/389/6 144/376/6 145/375/6
f 129/390/6 128/391/6 142/378/6 143/377/6
f 127/392/6 126/393/6 140/380/6 141/379/6
f 125/394/6 124/395/6 138/382/6 139/381/6
f 122/396/6 121/397/6 135/384/6 136/383/6
f 120/398/6 119/399/6 133/386/6 134/385/6
f 118/400/6 117/401/6 131/388/6 132/387/6
f 116/402/6 115/403/6 129/390/6 130/389/6
f 114/404/6 113/405/6 127/392/6 128/391/6
f 112/406/6 111/407/6 125/394/6 126/393/6
f 110/408/6 109/26/6 123/28/6 124/395/6
f 8/7/6 80/409/6 122/396/6 42/66/6
f 79/410/6 78/411/6 120/398/6 121/397/6
f 77/412/6 76/413/6 118/400/6 119/399/6
f 75/414/6 74/415/6 116/402/6 117/401/6
f 73/416/6 72/417/6 114/404/6 115/403/6
f 71/418/6 70/419/6 112/406/6 113/405/6
f 69/420/6 68/421/6 110/408/6 111/407/6
f 262/267/6 261/269/6 96/423/6 95/422/6
f 260/271/6 259/273/6 98/425/6 97/424/6
f 258/275/6 257/277/6 100/427/6 99/426/6
f 256/279/6 255/281/6 102/429/6 101/428/6
f 254/283/6 253/285/6 104/431/6 103/430/6
f 252/287/6 251/289/6 106/433/6 105/432/6
f 250/291/6 249/19/6 108/22/6 107/434/6
f 483/23/6 420/24/6 446/25/6 525/26/6
f 539/28/6 445/27/6 444/29/6 553/30/6
f 567/32/6 443/31/6 442/33/6 581/34/6
f 595/36/6 441/35/6 440/37/6 609/38/6
f 623/40/6 439/39/6 438/41/6 637/42/6
f 651/44/6 437/43/6 436/20/6 665/19/6
f 467/75/6 664/266/6 678/267/6 468/10/6
f 663/268/6 662/270/6 676/271/6 677/269/6
f 661/272/6 660/274/6 674/275/6 675/273/6
f 659/276/6 658/278/6 672/279/6 673/277/6
f 657/280/6 656/282/6 670/283/6 671/281/6
f 655/284/6 654/286/6 668/287/6 669/285/6
f 653/288/6 652/290/6 666/291/6 667/289/6
f 650/292/6 649/293/6 663/268/6 664/266/6
f 648/294/6 647/295/6 661/272/6 662/270/6
f 646/296/6 645/297/6 659/276/6 660/274/6
f 644/298/6 643/299/6 657/280/6 658/278/6
f 642/300/6 641/301/6 655/284/6 656/282/6
f 640/302/6 639/303/6 653/288/6 654/286/6
f 638/304/6 637/42/6 651/44/6 652/290/6
f 465/73/6 636/305/6 650/292/6 466/74/6
f 635/306/6 634/307/6 648/294/6 649/293/6
f 633/308/6 632/309/6 646/296/6 647/295/6
f 631/310/6 630/311/6 644/298/6 645/297/6
f 629/312/6 628/313/6 642/300/6 643/299/6
f 627/314/6 626/315/6 640/302/6 641/301/6
f 625/316/6 624/317/6 638/304/6 639/303/6
f 622/318/6 621/319/6 635/306/6 636/305/6
f 620/320/6 619/321/6 633/308/6 634/307/6
f 618/322/6 617/323/6 631/310/6 632/309/6
f 616/324/6 615/325/6 629/312/6 630/311/6
f 614/326/6 613/327/6 627/314/6 628/313/6
f 612/328/6 611/329/6 625/316/6 626/315/6
f 610/330/6 609/38/6 623/40/6 624/317/6
f 463/71/6 608/331/6 622/318/6 464/72/6
f 607/332/6 606/333/6 620/320/6 621/319/6
f 605/334/6 604/335/6 618/322/6 619/321/6
f 603/336/6 602/337/6 616/324/6 617/323/6
f 601/338/6 600/339/6 614/326/6 615/325/6
f 599/340/6 598/341/6 612/328/6 613/327/6
f 597/342/6 596/343/6 610/330/6 611/329/6
f 594/344/6 593/345/6 607/332/6 608/331/6
f 592/346/6 591/347/6 605/334/6 606/333/6
f 590/348/6 589/349/6 603/336/6 604/335/6
f 588/350/6 587/351/6 601/338/6 602/337/6
f 586/352/6 585/353/6 599/340/6 600/339/6
f 584/354/6 583/355/6 597/342/6 598/341/6
f 582/356/6 581/34/6 595/36/6 596/343/6
f 461/69/6 580/357/6 594/344/6 462/70/6
f 579/358/6 578/359/6 592/346/6 593/345/6
f 577/360/6 576/361/6 590/348/6 591/347/6
f 575/362/6 574/363/6 588/350/6 589/349/6
f 573/364/6 572/365/6 586/352/6 587/351/6
f 571/366/6 570/367/6 584/354/6 585/353/6
f 569/368/6 568/369/6 582/356/6 583/355/6
f 566/370/6 565/371/6 579/358/6 580/357/6
f 564/372/6 563/373/6 577/360/6 578/359/6
f 562/374/6 561/375/6 575/362/6 576/361/6
f 560/376/6 559/377/6 573/364/6 574/363/6
f 558/378/6 557/379/6 571/366/6 572/365/6
f 556/380/6 555/381/6 569/368/6 570/367/6
f 554/382/6 553/30/6 567/32/6 568/369/6
f 459/67/6 552/383/6 566/370/6 460/68/6
f 551/384/6 550/385/6 564/372/6 565/371/6
f 549/386/6 548/387/6 562/374/6 563/373/6
f 547/388/6 546/389/6 560/376/6 561/375/6
f 545/390/6 544/391/6 558/378/6 559/377/6
f 543/392/6 542/393/6 556/380/6 557/379/6
f 541/394/6 540/395/6 554/382/6 555/381/6
f 538/396/6 537/397/6 551/384/6 552/383/6
f 536/398/6 535/399/6 549/386/6 550/385/6
f 534/400/6 533/401/6 547/388/6 548/387/6
f 532/402/6 531/403/6 545/390/6 546/389/6
f 530/404/6 529/405/6 543/392/6 544/391/6
f 528/406/6 527/407/6 541/394/6 542/393/6
f 526/408/6 525/26/6 539/28/6 540/395/6
f 424/7/6 496/409/6 538/396/6 458/66/6
f 495/410/6 494/411/6 536/398/6 537/397/6
f 493/412/6 492/413/6 534/400/6 535/399/6
f 491/414/6 490/415/6 532/402/6 533/401/6
f 489/416/6 488/417/6 530/404/6 531/403/6
f 487/418/6 486/419/6 528/406/6 529/405/6
f 485/420/6 484/421/6 526/408/6 527/407/6
f 678/267/6 677/269/6 512/423/6 511/422/6
f 676/271/6 675/273/6 514/425/6 513/424/6
f 674/275/6 673/277/6 516/427/6 515/426/6
f 672/279/6 671/281/6 518/429/6 517/428/6
f 670/283/6 669/285/6 520/431/6 519/430/6
f 668/287/6 667/289/6 522/433/6 521/432/6
f 666/291/6 665/19/6 524/22/6 523/434/6
usemtl pared_azul
f 9/1/1 30/2/1 4/3/1 3/4/1
f 53/5/2 80/6/2 8/7/2 7/8/2
f 31/9/3 52/10/3 6/11/3 5/12/3
f 81/13/4 108/14/4 2/15/4 1/16/4
f 403/17/5 31/9/5 5/12/5 94/18/5
f 249/19/6 20/20/6 2/21/6 108/22/6
f 109/26/6 30/25/6 29/27/6 123/28/6
f 137/30/6 28/29/6 27/31/6 151/32/6
f 165/34/6 26/33/6 25/35/6 179/36/6
f 193/38/6 24/37/6 23/39/6 207/40/6
f 221/42/6 22/41/6 21/43/6 235/44/6
f 53/45/5 7/8/5 41/46/5 263/47/5
f 263/47/5 41/46/5 40/48/5 277/49/5
f 277/49/5 40/48/5 39/50/5 291/51/5
f 291/51/5 39/50/5 38/52/5 305/53/5
f 305/53/5 38/52/5 37/54/5 319/55/5
f 319/55/5 37/54/5 36/56/5 333/57/5
f 333/57/5 36/56/5 35/58/5 347/59/5
f 347/59/5 35/58/5 34/60/5 361/61/5
f 361/61/5 34/60/5 33/62/5 375/63/5
f 375/63/5 33/62/5 32/64/5 389/65/5
f 389/65/5 32/64/5 31/9/5 403/17/5
f 7/8/3 8/7/3 42/66/3 41/46/3
f 41/46/3 42/66/3 43/67/3 40/48/3
f 40/48/3 43/67/3 44/68/3 39/50/3
f 39/50/3 44/68/3 45/69/3 38/52/3
f 38/52/3 45/69/3 46/70/3 37/54/3
f 37/54/3 46/70/3 47/71/3 36/56/3
f 36/56/3 47/71/3 48/72/3 35/58/3
f 35/58/3 48/72/3 49/73/3 34/60/3
f 34/60/3 49/73/3 50/74/3 33/62/3
f 33/62/3 50/74/3 51/75/3 32/64/3
f 32/64/3 51/75/3 52/10/3 31/9/3
f 1/76/1 2/77/1 20/78/1 19/79/1
f 19/79/1 20/78/1 21/80/1 18/81/1
f 18/81/1 21/80/1 22/82/1 17/83/1
f 17/83/1 22/82/1 23/84/1 16/85/1
f 16/85/1 23/84/1 24/86/1 15/87/1
f 15/87/1 24/86/1 25/88/1 14/89/1
f 14/89/1 25/88/1 26/90/1 13/91/1
f 13/91/1 26/90/1 27/92/1 12/93/1
f 12/93/1 27/92/1 28/94/1 11/95/1
f 11/95/1 28/94/1 29/96/1 10/97/1
f 10/97/1 29/96/1 30/2/1 9/1/1
f 18/98/5 402/99/5 416/100/5 19/101/5
f 402/99/5 401/102/5 415/103/5 416/100/5
f 401/102/5 400/104/5 414/105/5 415/103/5
f 400/104/5 399/106/5 413/107/5 414/105/5
f 399/106/5 398/108/5 412/109/5 413/107/5
f 398/108/5 397/110/5 411/111/5 412/109/5
f 397/110/5 396/112/5 410/113/5 411/111/5
f 396/112/5 395/114/5 409/115/5 410/113/5
f 395/114/5 394/116/5 408/117/5 409/115/5
f 394/116/5 393/118/5 407/119/5 408/117/5
f 393/118/5 392/120/5 406/121/5 407/119/5
f 392/120/5 391/122/5 405/123/5 406/121/5
f 391/122/5 390/124/5 404/125/5 405/123/5
f 390/124/5 389/65/5 403/17/5 404/125/5
f 17/126/5 388/127/5 402/99/5 18/98/5
f 388/127/5 387/128/5 401/102/5 402/99/5
f 387/128/5 386/129/5 400/104/5 401/102/5
f 386/129/5 385/130/5 399/106/5 400/104/5
f 385/130/5 384/131/5 398/108/5 399/106/5
f 384/131/5 383/132/5 397/110/5 398/108/5
f 383/132/5 382/133/5 396/112/5 397/110/5
f 382/133/5 381/134/5 395/114/5 396/112/5
f 381/134/5 380/135/5 394/116/5 395/114/5
f 380/135/5 379/136/5 393/118/5 394/116/5
f 379/136/5 378/137/5 392/120/5 393/118/5
f 378/137/5 377/138/5 391/122/5 392/120/5
f 377/138/5 376/139/5 390/124/5 391/122/5
f 376/139/5 375/63/5 389/65/5 390/124/5
f 16/140/5 374/141/5 388/127/5 17/126/5
f 374/141/5 373/142/5 387/128/5 388/127/5
f 373/142/5 372/143/5 386/129/5 387/128/5
f 372/143/5 371/144/5 385/130/5 386/129/5
f 371/144/5 370/145/5 384/131/5 385/130/5
f 370/145/5 369/146/5 383/132/5 384/131/5
f 369/146/5 368/147/5 382/133/5 383/132/5
f 368/147/5 367/148/5 381/134/5 382/133/5
f 367/148/5 366/149/5 380/135/5 381/134/5
f 366/149/5 365/150/5 379/136/5 380/135/5
f 365/150/5 364/151/5 378/137/5 379/136/5
f 364/151/5 363/152/5 377/138/5 378/137/5
f 363/152/5 362/153/5 376/139/5 377/138/5
f 362/153/5 361/61/5 375/63/5 376/139/5
f 15/154/5 360/155/5 374/141/5 16/140/5
f 360/155/5 359/156/5 373/142/5 374/141/5
f 359/156/5 358/157/5 372/143/5 373/142/5
f 358/157/5 357/158/5 371/144/5 372/143/5
f 357/158/5 356/159/5 370/145/5 371/144/5
f 356/159/5 355/160/5 369/146/5 370/145/5
f 355/160/5 354/161/5 368/147/5 369/146/5
f 354/161/5 353/162/5 367/148/5 368/147/5
f 353/162/5 352/163/5 366/149/5 367/148/5
f 352/163/5 351/164/5 365/150/5 366/149/5
f 351/164/5 350/165/5 364/151/5 365/150/5
f 350/165/5 349/166/5 363/152/5 364/151/5
f 349/166/5 348/167/5 362/153/5 363/152/5
f 348/167/5 347/59/5 361/61/5 362/153/5
f 14/168/5 346/169/5 360/155/5 15/154/5
f 346/169/5 345/170/5 359/156/5 360/155/5
f 345/170/5 344/171/5 358/157/5 359/156/5
f 344/171/5 343/172/5 357/158/5 358/157/5
f 343/172/5 342/173/5 356/159/5 357/158/5
f 342/173/5 341/174/5 355/160/5 356/159/5
f 341/174/5 340/175/5 354/161/5 355/160/5
f 340/175/5 339/176/5 353/162/5 354/161/5
f 339/176/5 338/177/5 352/163/5 353/162/5
f 338/177/5 337/178/5 351/164/5 352/163/5
f 337/178/5 336/179/5 350/165/5 351/164/5
f 336/179/5 335/180/5 349/166/5 350/165/5
f 335/180/5 334/181/5 348/167/5 349/166/5
f 334/181/5 333/57/5 347/59/5 348/167/5
f 13/182/5 332/183/5 346/169/5 14/168/5
f 332/183/5 331/184/5 345/170/5 346/169/5
f 331/184/5 330/185/5 344/171/5 345/170/5
f 330/185/5 329/186/5 343/172/5 344/171/5
f 329/186/5 328/187/5 342/173/5 343/172/5
f 328/187/5 327/188/5 341/174/5 342/173/5
f 327/188/5 326/189/5 340/175/5 341/174/5
f 326/189/5 325/190/5 339/176/5 340/175/5
f 325/190/5 324/191/5 338/177/5 339/176/5
f 324/191/5 323/192/5 337/178/5 338/177/5
f 323/192/5 322/193/5 336/179/5 337/178/5
f 322/193/5 321/194/5 335/180/5 336/179/5
f 321/194/5 320/195/5 334/181/5 335/180/5
f 320/195/5 319/55/5 333/57/5 334/181/5
f 12/196/5 318/197/5 332/183/5 13/182/5
f 318/197/5 317/198/5 331/184/5 332/183/5
f 317/198/5 316/199/5 330/185/5 331/184/5
f 316/199/5 315/200/5 329/186/5 330/185/5
f 315/200/5 314/201/5 328/187/5 329/186/5
f 314/201/5 313/202/5 327/188/5 328/187/5
f 313/202/5 312/203/5 326/189/5 327/188/5
f 312/203/5 311/204/5 325/190/5 326/189/5
f 311/204/5 310/205/5 324/191/5 325/190/5
f 310/205/5 309/206/5 323/192/5 324/191/5
f 309/206/5 308/207/5 322/193/5 323/192/5
f 308/207/5 307/208/5 321/194/5 322/193/5
f 307/208/5 306/209/5 320/195/5 321/194/5
f 306/209/5 305/53/5 319/55/5 320/195/5
f 11/210/5 304/211/5 318/197/5 12/196/5
f 304/211/5 303/212/5 317/198/5 318/197/5
f 303/212/5 302/213/5 316/199/5 317/198/5
f 302/213/5 301/214/5 315/200/5 316/199/5
f 301/214/5 300/215/5 314/201/5 315/200/5
f 300/215/5 299/216/5 313/202/5 314/201/5
f 299/216/5 298/217/5 312/203/5 313/202/5
f 298/217/5 297/218/5 311/204/5 312/203/5
f 297/218/5 296/219/5 310/205/5 311/204/5
f 296/219/5 295/220/5 309/206/5 310/205/5
f 295/220/5 294/221/5 308/207/5 309/206/5
f 294/221/5 293/222/5 307/208/5 308/207/5
f 293/222/5 292/223/5 306/209/5 307/208/5
f 292/223/5 291/51/5 305/53/5 306/209/5
f 10/224/5 290/225/5 304/211/5 11/210/5
f 290/225/5 289/226/5 303/212/5 304/211/5
f 289/226/5 288/227/5 302/213/5 303/212/5
f 288/227/5 287/228/5 301/214/5 302/213/5
f 287/228/5 286/229/5 300/215/5 301/214/5
f 286/229/5 285/230/5 299/216/5 300/215/5
f 285/230/5 284/231/5 298/217/5 299/216/5
f 284/231/5 283/232/5 297/218/5 298/217/5
f 283/232/5 282/233/5 296/219/5 297/218/5
f 282/233/5 281/234/5 295/220/5 296/219/5
f 281/234/5 280/235/5 294/221/5 295/220/5
f 280/235/5 279/236/5 293/222/5 294/221/5
f 279/236/5 278/237/5 292/223/5 293/222/5
f 278/237/5 277/49/5 291/51/5 292/223/5
f 9/238/5 276/239/5 290/225/5 10/224/5
f 276/239/5 275/240/5 289/226/5 290/225/5
f 275/240/5 274/241/5 288/227/5 289/226/5
f 274/241/5 273/242/5 287/228/5 288/227/5
f 273/242/5 272/243/5 286/229/5 287/228/5
f 272/243/5 271/244/5 285/230/5 286/229/5
f 271/244/5 270/245/5 284/231/5 285/230/5
f 270/245/5 269/246/5 283/232/5 284/231/5
f 269/246/5 268/247/5 282/233/5 283/232/5
f 268/247/5 267/248/5 281/234/5 282/233/5
f 267/248/5 266/249/5 280/235/5 281/234/5
f 266/249/5 265/250/5 279/236/5 280/235/5
f 265/250/5 264/251/5 278/237/5 279/236/5
f 264/251/5 263/47/5 277/49/5 278/237/5
f 3/252/5 66/253/5 276/239/5 9/238/5
f 66/253/5 65/254/5 275/240/5 276/239/5
f 65/254/5 64/255/5 274/241/5 275/240/5
f 64/255/5 63/256/5 273/242/5 274/241/5
f 63/256/5 62/257/5 272/243/5 273/242/5
f 62/257/5 61/258/5 271/244/5 272/243/5
f 61/258/5 60/259/5 270/245/5 271/244/5
f 60/259/5 59/260/5 269/246/5 270/245/5
f 59/260/5 58/261/5 268/247/5 269/246/5
f 58/261/5 57/262/5 267/248/5 268/247/5
f 57/262/5 56/263/5 266/249/5 267/248/5
f 56/263/5 55/264/5 265/250/5 266/249/5
f 55/264/5 54/265/5 264/251/5 265/250/5
f 54/265/5 53/45/5 263/47/5 264/251/5
f 248/266/6 247/268/6 261/269/6 262/267/6
f 246/270/6 245/272/6 259/273/6 260/271/6
f 244/274/6 243/276/6 257/277/6 258/275/6
f 242/278/6 241/280/6 255/281/6 256/279/6
f 240/282/6 239/284/6 253/285/6 254/283/6
f 238/286/6 237/288/6 251/289/6 252/287/6
f 236/290/6 235/44/6 249/19/6 250/291/6
f 50/74/6 234/292/6 248/266/6 51/75/6
f 233/293/6 232/294/6 246/270/6 247/268/6
f 231/295/6 230/296/6 244/274/6 245/272/6
f 229/297/6 228/298/6 242/278/6 243/276/6
f 227/299/6 226/300/6 240/282/6 241/280/6
f 225/301/6 224/302/6 238/286/6 239/284/6
f 223/303/6 222/304/6 236/290/6 237/288/6
f 220/305/6 219/306/6 233/293/6 234/292/6
f 218/307/6 217/308/6 231/295/6 232/294/6
f 216/309/6 215/310/6 229/297/6 230/296/6
f 214/311/6 213/312/6 227/299/6 228/298/6
f 212/313/6 211/314/6 225/301/6 226/300/6
f 210/315/6 209/316/6 223/303/6 224/302/6
f 208/317/6 207/40/6 221/42/6 222/304/6
f 48/72/6 206/318/6 220/305/6 49/73/6
f 205/319/6 204/320/6 218/307/6 219/306/6
f 203/321/6 202/322/6 216/309/6 217/308/6
f 201/323/6 200/324/6 214/311/6 215/310/6
f 199/325/6 198/326/6 212/313/6 213/312/6
f 197/327/6 196/328/6 210/315/6 211/314/6
f 195/329/6 194/330/6 208/317/6 209/316/6
f 192/331/6 191/332/6 205/319/6 206/318/6
f 190/333/6 189/334/6 203/321/6 204/320/6
f 188/335/6 187/336/6 201/323/6 202/322/6
f 186/337/6 185/338/6 199/325/6 200/324/6
f 184/339/6 183/340/6 197/327/6 198/326/6
f 182/341/6 181/342/6 195/329/6 196/328/6
f 180/343/6 179/36/6 193/38/6 194/330/6
f 46/70/6 178/344/6 192/331/6 47/71/6
f 177/345/6 176/346/6 190/333/6 191/332/6
f 175/347/6 174/348/6 188/335/6 189/334/6
f 173/349/6 172/350/6 186/337/6 187/336/6
f 171/351/6 170/352/6 184/339/6 185/338/6
f 169/353/6 168/354/6 182/341/6 183/340/6
f 167/355/6 166/356/6 180/343/6 181/342/6
f 164/357/6 163/358/6 177/345/6 178/344/6
f 162/359/6 161/360/6 175/347/6 176/346/6
f 160/361/6 159/362/6 173/349/6 174/348/6
f 158/363/6 157/364/6 171/351/6 172/350/6
f 156/365/6 155/366/6 169/353/6 170/352/6
f 154/367/6 153/368/6 167/355/6 168/354/6
f 152/369/6 151/32/6 165/34/6 166/356/6
f 44/68/6 150/370/6 164/357/6 45/69/6
f 149/371/6 148/372/6 162/359/6 163/358/6
f 147/373/6 146/374/6 160/361/6 161/360/6
f 145/375/6 144/376/6 158/363/6 159/362/6
f 143/377/6 142/378/6 156/365/6 157/364/6
f 141/379/6 140/380/6 154/367/6 155/366/6
f 139/381/6 138/382/6 152/369/6 153/368/6
f 136/383/6 135/384/6 149/371/6 150/370/6
f 134/385/6 133/386/6 147/373/6 148/372/6
f 132/387/6 131/388/6 145/375/6 146/374/6
f 130/389/6 129/390/6 143/377/6 144/376/6
f 128/391/6 127/392/6 141/379/6 142/378/6
f 126/393/6 125/394/6 139/381/6 140/380/6
f 124/395/6 123/28/6 137/30/6 138/382/6
f 42/66/6 122/396/6 136/383/6 43/67/6
f 121/397/6 120/398/6 134/385/6 135/384/6
f 119/399/6 118/400/6 132/387/6 133/386/6
f 117/401/6 116/402/6 130/389/6 131/388/6
f 115/403/6 114/404/6 128/391/6 129/390/6
f 113/405/6 112/406/6 126/393/6 127/392/6
f 111/407/6 110/408/6 124/395/6 125/394/6
f 80/409/6 79/410/6 121/397/6 122/396/6
f 78/411/6 77/412/6 119/399/6 120/398/6
f 76/413/6 75/414/6 117/401/6 118/400/6
f 74/415/6 73/416/6 115/403/6 116/402/6
f 72/417/6 71/418/6 113/405/6 114/404/6
f 70/419/6 69/420/6 111/407/6 112/406/6
f 68/421/6 67/23/6 109/26/6 110/408/6
f 52/10/6 262/267/6 95/422/6 6/11/6
f 261/269/6 260/271/6 97/424/6 96/423/6
f 259/273/6 258/275/6 99/426/6 98/425/6
f 257/277/6 256/279/6 101/428/6 100/427/6
f 255/281/6 254/283/6 103/430/6 102/429/6
f 253/285/6 252/287/6 105/432/6 104/431/6
f 251/289/6 250/291/6 107/434/6 106/433/6
f 19/101/5 416/100/5 81/435/5 1/436/5
f 416/100/5 415/103/5 82/437/5 81/435/5
f 415/103/5 414/105/5 83/438/5 82/437/5
f 414/105/5 413/107/5 84/439/5 83/438/5
f 413/107/5 412/109/5 85/440/5 84/439/5
f 412/109/5 411/111/5 86/441/5 85/440/5
f 411/111/5 410/113/5 87/442/5 86/441/5
f 410/113/5 409/115/5 88/443/5 87/442/5
f 409/115/5 408/117/5 89/444/5 88/443/5
f 408/117/5 407/119/5 90/445/5 89/444/5
f 407/119/5 406/121/5 91/446/5 90/445/5
f 406/121/5 405/123/5 92/447/5 91/446/5
f 405/123/5 404/125/5 93/448/5 92/447/5
f 404/125/5 403/17/5 94/18/5 93/448/5
f 5/12/4 6/11/4 95/449/4 94/450/4
f 94/450/4 95/449/4 96/451/4 93/452/4
f 93/452/4 96/451/4 97/453/4 92/454/4
f 92/454/4 97/453/4 98/455/4 91/456/4
f 91/456/4 98/455/4 99/457/4 90/458/4
f 90/458/4 99/457/4 100/459/4 89/460/4
f 89/460/4 100/459/4 101/461/4 88/462/4
f 88/462/4 101/461/4 102/463/4 87/464/4
f 87/464/4 102/463/4 103/465/4 86/466/4
f 86/466/4 103/465/4 104/467/4 85/468/4
f 85/468/4 104/467/4 105/469/4 84/470/4
f 84/470/4 105/469/4 106/471/4 83/472/4
f 83/472/4 106/471/4 107/473/4 82/474/4
f 82/474/4 107/473/4 108/14/4 81/13/4
f 3/4/2 4/3/2 67/475/2 66/476/2
f 66/476/2 67/475/2 68/477/2 65/478/2
f 65/478/2 68/477/2 69/479/2 64/480/2
f 64/480/2 69/479/2 70/481/2 63/482/2
f 63/482/2 70/481/2 71/483/2 62/484/2
f 62/484/2 71/483/2 72/485/2 61/486/2
f 61/486/2 72/485/2 73/487/2 60/488/2
f 60/488/2 73/487/2 74/489/2 59/490/2
f 59/490/2 74/489/2 75/491/2 58/492/2
f 58/492/2 75/491/2 76/493/2 57/494/2
f 57/494/2 76/493/2 77/495/2 56/496/2
f 56/496/2 77/495/2 78/497/2 55/498/2
f 55/498/2 78/497/2 79/499/2 54/500/2
f 54/500/2 79/499/2 80/6/2 53/5/2
f 425/1/1 446/2/1 420/3/1 419/4/1
f 469/5/2 496/6/2 424/7/2 423/8/2
f 447/9/3 468/10/3 422/11/3 421/12/3
f 497/13/4 524/14/4 418/15/4 417/16/4
f 819/17/5 447/9/5 421/12/5 510/18/5
f 665/19/6 436/20/6 418/21/6 524/22/6
f 525/26/6 446/25/6 445/27/6 539/28/6
f 553/30/6 444/29/6 443/31/6 567/32/6
f 581/34/6 442/33/6 441/35/6 595/36/6
f 609/38/6 440/37/6 439/39/6 623/40/6
f 637/42/6 438/41/6 437/43/6 651/44/6
f 469/45/5 423/8/5 457/46/5 679/47/5
f 679/47/5 457/46/5 456/48/5 693/49/5
f 693/49/5 456/48/5 455/50/5 707/51/5
f 707/51/5 455/50/5 454/52/5 721/53/5
f 721/53/5 454/52/5 453/54/5 735/55/5
f 735/55/5 453/54/5 452/56/5 749/57/5
f 749/57/5 452/56/5 451/58/5 763/59/5
f 763/59/5 451/58/5 450/60/5 777/61/5
f 777/61/5 450/60/5 449/62/5 791/63/5
f 791/63/5 449/62/5 448/64/5 805/65/5
f 805/65/5 448/64/5 447/9/5 819/17/5
f 423/8/3 424/7/3 458/66/3 457/46/3
f 457/46/3 458/66/3 459/67/3 456/48/3
f 456/48/3 459/67/3 460/68/3 455/50/3
f 455/50/3 460/68/3 461/69/3 454/52/3
f 454/52/3 461/69/3 462/70/3 453/54/3
f 453/54/3 462/70/3 463/71/3 452/56/3
f 452/56/3 463/71/3 464/72/3 451/58/3
f 451/58/3 464/72/3 465/73/3 450/60/3
f 450/60/3 465/73/3 466/74/3 449/62/3
f 449/62/3 466/74/3 467/75/3 448/64/3
f 448/64/3 467/75/3 468/10/3 447/9/3
f 417/76/1 418/77/1 436/78/1 435/79/1
f 435/79/1 436/78/1 437/80/1 434/81/1
f 434/81/1 437/80/1 438/82/1 433/83/1
f 433/83/1 438/82/1 439/84/1 432/85/1
f 432/85/1 439/84/1 440/86/1 431/87/1
f 431/87/1 440/86/1 441/88/1 430/89/1
f 430/89/1 441/88/1 442/90/1 429/91/1
f 429/91/1 442/90/1 443/92/1 428/93/1
f 428/93/1 443/92/1 444/94/1 427/95/1
f 427/95/1 444/94/1 445/96/1 426/97/1
f 426/97/1 445/96/1 446/2/1 425/1/1
f 434/98/5 818/99/5 832/100/5 435/101/5
f 818/99/5 817/102/5 831/103/5 832/100/5
f 817/102/5 816/104/5 830/105/5 831/103/5
f 816/104/5 815/106/5 829/107/5 830/105/5
f 815/106/5 814/108/5 828/109/5 829/107/5
f 814/108/5 813/110/5 827/111/5 828/109/5
f 813/110/5 812/112/5 826/113/5 827/111/5
f 812/112/5 811/114/5 825/115/5 826/113/5
f 811/114/5 810/116/5 824/117/5 825/115/5
f 810/116/5 809/118/5 823/119/5 824/117/5
f 809/118/5 808/120/5 822/121/5 823/119/5
f 808/120/5 807/122/5 821/123/5 822/121/5
f 807/122/5 806/124/5 820/125/5 821/123/5
f 806/124/5 805/65/5 819/17/5 820/125/5
f 433/126/5 804/127/5 818/99/5 434/98/5
f 804/127/5 803/128/5 817/102/5 818/99/5
f 803/128/5 802/129/5 816/104/5 817/102/5
f 802/129/5 801/130/5 815/106/5 816/104/5
f 801/130/5 800/131/5 814/108/5 815/106/5
f 800/131/5 799/132/5 813/110/5 814/108/5
f 799/132/5 798/133/5 812/112/5 813/110/5
f 798/133/5 797/134/5 811/114/5 812/112/5
f 797/134/5 796/135/5 810/116/5 811/114/5
f 796/135/5 795/136/5 809/118/5 810/116/5
f 795/136/5 794/137/5 808/120/5 809/118/5
f 794/137/5 793/138/5 807/122/5 808/120/5
f 793/138/5 792/139/5 806/124/5 807/122/5
f 792/139/5 791/63/5 805/65/5 806/124/5
f 432/140/5 790/141/5 804/127/5 433/126/5
f 790/141/5 789/142/5 803/128/5 804/127/5
f 789/142/5 788/143/5 802/129/5 803/128/5
f 788/143/5 787/144/5 801/130/5 802/129/5
f 787/144/5 786/145/5 800/131/5 801/130/5
f 786/145/5 785/146/5 799/132/5 800/131/5
f 785/146/5 784/147/5 798/133/5 799/132/5
f 784/147/5 783/148/5 797/134/5 798/133/5
f 783/148/5 782/149/5 796/135/5 797/134/5
f 782/149/5 781/150/5 795/136/5 796/135/5
f 781/150/5 780/151/5 794/137/5 795/136/5
f 780/151/5 779/152/5 793/138/5 794/137/5
f 779/152/5 778/153/5 792/139/5 793/138/5
f 778/153/5 777/61/5 791/63/5 792/139/5
f 431/154/5 776/155/5 790/141/5 432/140/5
f 776/155/5 775/156/5 789/142/5 790/141/5
f 775/156/5 774/157/5 788/143/5 789/142/5
f 774/157/5 773/158/5 787/144/5 788/143/5
f 773/158/5 772/159/5 786/145/5 787/144/5
f 772/159/5 771/160/5 785/146/5 786/145/5
f 771/160/5 770/161/5 784/147/5 785/146/5
f 770/161/5 769/162/5 783/148/5 784/147/5
f 769/162/5 768/163/5 782/149/5 783/148/5
f 768/163/5 767/164/5 781/150/5 782/149/5
f 767/164/5 766/165/5 780/151/5 781/150/5
f 766/165/5 765/166/5 779/152/5 780/151/5
f 765/166/5 764/167/5 778/153/5 779/152/5
f 764/167/5 763/59/5 777/61/5 778/153/5
f 430/168/5 762/169/5 776/155/5 431/154/5
f 762/169/5 761/170/5 775/156/5 776/155/5
f 761/170/5 760/171/5 774/157/5 775/156/5
f 760/171/5 759/172/5 773/158/5 774/157/5
f 759/172/5 758/173/5 772/159/5 773/158/5
f 758/173/5 757/174/5 771/160/5 772/159/5
f 757/174/5 756/175/5 770/161/5 771/160/5
f 756/175/5 755/176/5 769/162/5 770/161/5
f 755/176/5 754/177/5 768/163/5 769/162/5
f 754/177/5 753/178/5 767/164/5 768/163/5
f 753/178/5 752/179/5 766/165/5 767/164/5
f 752/179/5 751/180/5 765/166/5 766/165/5
f 751/180/5 750/181/5 764/167/5 765/166/5
f 750/181/5 749/57/5 763/59/5 764/167/5
f 429/182/5 748/183/5 762/169/5 430/168/5
f 748/183/5 747/184/5 761/170/5 762/169/5
f 747/184/5 746/185/5 760/171/5 761/170/5
f 746/185/5 745/186/5 759/172/5 760/171/5
f 745/186/5 744/187/5 758/173/5 759/172/5
f 744/187/5 743/188/5 757/174/5 758/173/5
f 743/188/5 742/189/5 756/175/5 757/174/5
f 742/189/5 741/190/5 755/176/5 756/175/5
f 741/190/5 740/191/5 754/177/5 755/176/5
f 740/191/5 739/192/5 753/178/5 754/177/5
f 739/192/5 738/193/5 752/179/5 753/178/5
f 738/193/5 737/194/5 751/180/5 752/179/5
f 737/194/5 736/195/5 750/181/5 751/180/5
f 736/195/5 735/55/5 749/57/5 750/181/5
f 428/196/5 734/197/5 748/183/5 429/182/5
f 734/197/5 733/198/5 747/184/5 748/183/5
f 733/198/5 732/199/5 746/185/5 747/184/5
f 732/199/5 731/200/5 745/186/5 746/185/5
f 731/200/5 730/201/5 744/187/5 745/186/5
f 730/201/5 729/202/5 743/188/5 744/187/5
f 729/202/5 728/203/5 742/189/5 743/188/5
f 728/203/5 727/204/5 741/190/5 742/189/5
f 727/204/5 726/205/5 740/191/5 741/190/5
f 726/205/5 725/206/5 739/192/5 740/191/5
f 725/206/5 724/207/5 738/193/5 739/192/5
f 724/207/5 723/208/5 737/194/5 738/193/5
f 723/208/5 722/209/5 736/195/5 737/194/5
f 722/209/5 721/53/5 735/55/5 736/195/5
f 427/210/5 720/211/5 734/197/5 428/196/5
f 720/211/5 719/212/5 733/198/5 734/197/5
f 719/212/5 718/213/5 732/199/5 733/198/5
f 718/213/5 717/214/5 731/200/5 732/199/5
f 717/214/5 716/215/5 730/201/5 731/200/5
f 716/215/5 715/216/5 729/202/5 730/201/5
f 715/216/5 714/217/5 728/203/5 729/202/5
f 714/217/5 713/218/5 727/204/5 728/203/5
f 713/218/5 712/219/5 726/205/5 727/204/5
f 712/219/5 711/220/5 725/206/5 726/205/5
f 711/220/5 710/221/5 724/207/5 725/206/5
f 710/221/5 709/222/5 723/208/5 724/207/5
f 709/222/5 708/223/5 722/209/5 723/208/5
f 708/223/5 707/51/5 721/53/5 722/209/5
f 426/224/5 706/225/5 720/211/5 427/210/5
f 706/225/5 705/226/5 719/212/5 720/211/5
f 705/226/5 704/227/5 718/213/5 719/212/5
f 704/227/5 703/228/5 717/214/5 718/213/5
f 703/228/5 702/229/5 716/215/5 717/214/5
f 702/229/5 701/230/5 715/216/5 716/215/5
f 701/230/5 700/231/5 714/217/5 715/216/5
f 700/231/5 699/232/5 713/218/5 714/217/5
f 699/232/5 698/233/5 712/219/5 713/218/5
f 698/233/5 697/234/5 711/220/5 712/219/5
f 697/234/5 696/235/5 710/221/5 711/220/5
f 696/235/5 695/236/5 709/222/5 710/221/5
f 695/236/5 694/237/5 708/223/5 709/222/5
f 694/237/5 693/49/5 707/51/5 708/223/5
f 425/238/5 692/239/5 706/225/5 426/224/5
f 692/239/5 691/240/5 705/226/5 706/225/5
f 691/240/5 690/241/5 704/227/5 705/226/5
f 690/241/5 689/242/5 703/228/5 704/227/5
f 689/242/5 688/243/5 702/229/5 703/228/5
f 688/243/5 687/244/5 701/230/5 702/229/5
f 687/244/5 686/245/5 700/231/5 701/230/5
f 686/245/5 685/246/5 699/232/5 700/231/5
f 685/246/5 684/247/5 698/233/5 699/232/5
f 684/247/5 683/248/5 697/234/5 698/233/5
f 683/248/5 682/249/5 696/235/5 697/234/5
f 682/249/5 681/250/5 695/236/5 696/235/5
f 681/250/5 680/251/5 694/237/5 695/236/5
f 680/251/5 679/47/5 693/49/5 694/237/5
f 419/252/5 482/253/5 692/239/5 425/238/5
f 482/253/5 481/254/5 691/240/5 692/239/5
f 481/254/5 480/255/5 690/241/5 691/240/5
f 480/255/5 479/256/5 689/242/5 690/241/5
f 479/256/5 478/257/5 688/243/5 689/242/5
f 478/257/5 477/258/5 687/244/5 688/243/5
f 477/258/5 476/259/5 686/245/5 687/244/5
f 476/259/5 475/260/5 685/246/5 686/245/5
f 475/260/5 474/261/5 684/247/5 685/246/5
f 474/261/5 473/262/5 683/248/5 684/247/5
f 473/262/5 472/263/5 682/249/5 683/248/5
f 472/263/5 471/264/5 681/250/5 682/249/5
f 471/264/5 470/265/5 680/251/5 681/250/5
f 470/265/5 469/45/5 679/47/5 680/251/5
f 664/266/6 663/268/6 677/269/6 678/267/6
f 662/270/6 661/272/6 675/273/6 676/271/6
f 660/274/6 659/276/6 673/277/6 674/275/6
f 658/278/6 657/280/6 671/281/6 672/279/6
f 656/282/6 655/284/6 669/285/6 670/283/6
f 654/286/6 653/288/6 667/289/6 668/287/6
f 652/290/6 651/44/6 665/19/6 666/291/6
f 466/74/6 650/292/6 664/266/6 467/75/6
f 649/293/6 648/294/6 662/270/6 663/268/6
f 647/295/6 646/296/6 660/274/6 661/272/6
f 645/297/6 644/298/6 658/278/6 659/276/6
f 643/299/6 642/300/6 656/282/6 657/280/6
f 641/301/6 640/302/6 654/286/6 655/284/6
f 639/303/6 638/304/6 652/290/6 653/288/6
f 636/305/6 635/306/6 649/293/6 650/292/6
f 634/307/6 633/308/6 647/295/6 648/294/6
f 632/309/6 631/310/6 645/297/6 646/296/6
f 630/311/6 629/312/6 643/299/6 644/298/6
f 628/313/6 627/314/6 641/301/6 642/300/6
f 626/315/6 625/316/6 639/303/6 640/302/6
f 624/317/6 623/40/6 637/42/6 638/304/6
f 464/72/6 622/318/6 636/305/6 465/73/6
f 621/319/6 620/320/6 634/307/6 635/306/6
f 619/321/6 618/322/6 632/309/6 633/308/6
f 617/323/6 616/324/6 630/311/6 631/310/6
f 615/325/6 614/326/6 628/313/6 629/312/6
f 613/327/6 612/328/6 626/315/6 627/314/6
f 611/329/6 610/330/6 624/317/6 625/316/6
f 608/331/6 607/332/6 621/319/6 622/318/6
f 606/333/6 605/334/6 619/321/6 620/320/6
f 604/335/6 603/336/6 617/323/6 618/322/6
f 602/337/6 601/338/6 615/325/6 616/324/6
f 600/339/6 599/340/6 613/327/6 614/326/6
f 598/341/6 597/342/6 611/329/6 612/328/6
f 596/343/6 595/36/6 609/38/6 610/330/6
f 462/70/6 594/344/6 608/331/6 463/71/6
f 593/345/6 592/346/6 606/333/6 607/332/6
f 591/347/6 590/348/6 604/335/6 605/334/6
f 589/349/6 588/350/6 602/337/6 603/336/6
f 587/351/6 586/352/6 600/339/6 601/338/6
f 585/353/6 584/354/6 598/341/6 599/340/6
f 583/355/6 582/356/6 596/343/6 597/342/6
f 580/357/6 579/358/6 593/345/6 594/344/6
f 578/359/6 577/360/6 591/347/6 592/346/6
f 576/361/6 575/362/6 589/349/6 590/348/6
f 574/363/6 573/364/6 587/351/6 588/350/6
f 572/365/6 571/366/6 585/353/6 586/352/6
f 570/367/6 569/368/6 583/355/6 584/354/6
f 568/369/6 567/32/6 581/34/6 582/356/6
f 460/68/6 566/370/6 580/357/6 461/69/6
f 565/371/6 564/372/6 578/359/6 579/358/6
f 563/373/6 562/374/6 576/361/6 577/360/6
f 561/375/6 560/376/6 574/363/6 575/362/6
f 559/377/6 558/378/6 572/365/6 573/364/6
f 557/379/6 556/380/6 570/367/6 571/366/6
f 555/381/6 554/382/6 568/369/6 569/368/6
f 552/383/6 551/384/6 565/371/6 566/370/6
f 550/385/6 549/386/6 563/373/6 564/372/6
f 548/387/6 547/388/6 561/375/6 562/374/6
f 546/389/6 545/390/6 559/377/6 560/376/6
f 544/391/6 543/392/6 557/379/6 558/378/6
f 542/393/6 541/394/6 555/381/6 556/380/6
f 540/395/6 539/28/6 553/30/6 554/382/6
f 458/66/6 538/396/6 552/383/6 459/67/6
f 537/397/6 536/398/6 550/385/6 551/384/6
f 535/399/6 534/400/6 548/387/6 549/386/6
f 533/401/6 532/402/6 546/389/6 547/388/6
f 531/403/6 530/404/6 544/391/6 545/390/6
f 529/405/6 528/406/6 542/393/6 543/392/6
f 527/407/6 526/408/6 540/395/6 541/394/6
f 496/409/6 495/410/6 537/397/6 538/396/6
f 494/411/6 493/412/6 535/399/6 536/398/6
f 492/413/6 491/414/6 533/401/6 534/400/6
f 490/415/6 489/416/6 531/403/6 532/402/6
f 488/417/6 487/418/6 529/405/6 530/404/6
f 486/419/6 485/420/6 527/407/6 528/406/6
f 484/421/6 483/23/6 525/26/6 526/408/6
f 468/10/6 678/267/6 511/422/6 422/11/6
f 677/269/6 676/271/6 513/424/6 512/423/6
f 675/273/6 674/275/6 515/426/6 514/425/6
f 673/277/6 672/279/6 517/428/6 516/427/6
f 671/281/6 670/283/6 519/430/6 518/429/6
f 669/285/6 668/287/6 521/432/6 520/431/6
f 667/289/6 666/291/6 523/434/6 522/433/6
f 435/101/5 832/100/5 497/435/5 417/436/5
f 832/100/5 831/103/5 498/437/5 497/435/5
f 831/103/5 830/105/5 499/438/5 498/437/5
f 830/105/5 829/107/5 500/439/5 499/438/5
f 829/107/5 828/109/5 501/440/5 500/439/5
f 828/109/5 827/111/5 502/441/5 501/440/5
f 827/111/5 826/113/5 503/442/5 502/441/5
f 826/113/5 825/115/5 504/443/5 503/442/5
f 825/115/5 824/117/5 505/444/5 504/443/5
f 824/117/5 823/119/5 506/445/5 505/444/5
f 823/119/5 822/121/5 507/446/5 506/445/5
f 822/121/5 821/123/5 508/447/5 507/446/5
f 821/123/5 820/125/5 509/448/5 508/447/5
f 820/125/5 819/17/5 510/18/5 509/448/5
f 421/12/4 422/11/4 511/449/4 510/450/4
f 510/450/4 511/449/4 512/451/4 509/452/4
f 509/452/4 512/451/4 513/453/4 508/454/4
f 508/454/4 513/453/4 514/455/4 507/456/4
f 507/456/4 514/455/4 515/457/4 506/458/4
f 506/458/4 515/457/4 516/459/4 505/460/4
f 505/460/4 516/459/4 517/461/4 504/462/4
f 504/462/4 517/461/4 518/463/4 503/464/4
f 503/464/4 518/463/4 519/465/4 502/466/4
f 502/466/4 519/465/4 520/467/4 501/468/4
f 501/468/4 520/467/4 521/469/4 500/470/4
f 500/470/4 521/469/4 522/471/4 499/472/4
f 499/472/4 522/471/4 523/473/4 498/474/4
f 498/474/4 523/473/4 524/14/4 497/13/4
f 419/4/2 420/3/2 483/475/2 482/476/2
f 482/476/2 483/475/2 484/477/2 481/478/2
f 481/478/2 484/477/2 485/479/2 480/480/2
f 480/480/2 485/479/2 486/481/2 479/482/2
f 479/482/2 486/481/2 487/483/2 478/484/2
f 478/484/2 487/483/2 488/485/2 477/486/2
f 477/486/2 488/485/2 489/487/2 476/488/2
f 476/488/2 489/487/2 490/489/2 475/490/2
f 475/490/2 490/489/2 491/491/2 474/492/2
f 474/492/2 491/491/2 492/493/2 473/494/2
f 473/494/2 492/493/2 493/495/2 472/496/2
f 472/496/2 493/495/2 494/497/2 471/498/2
f 471/498/2 494/497/2 495/499/2 470/500/2
f 470/500/2 495/499/2 496/6/2 469/5/2
