# Blender 3.3.21
# www.blender.org
mtllib balon_futbol.mtl
o Old_soccer_ball
v -0.561164 0.551137 0.006884
v -0.553095 0.662882 0.007891
v -0.550479 0.551137 0.117781
v -0.550479 0.551137 -0.105710
v -0.548439 0.439391 0.004589
v -0.542386 0.661218 -0.103170
v -0.542386 0.661221 0.116993
v -0.538305 0.441055 -0.106064
v -0.538231 0.441055 0.113791
v -0.523308 0.770977 0.006907
v -0.519395 0.551137 -0.215696
v -0.519249 0.551137 0.222862
v -0.516392 0.332303 0.001548
v -0.513425 0.768336 0.112493
v -0.513425 0.767166 -0.100226
v -0.511610 0.657496 -0.212079
v -0.511401 0.657619 0.220202
v -0.508496 0.444777 -0.213219
v -0.508092 0.444777 0.216620
v -0.507323 0.335634 -0.104552
v -0.506597 0.335634 0.105241
v -0.485085 0.759181 -0.204702
v -0.484874 0.761015 0.211943
v -0.480359 0.343459 -0.206616
v -0.478983 0.343459 0.203132
v -0.472991 0.872527 0.004708
v -0.469630 0.551137 -0.318880
v -0.469617 0.551137 0.319581
v -0.466240 0.234528 -0.002165
v -0.464457 0.868927 0.106743
v -0.464457 0.865830 -0.098323
v -0.462788 0.653924 0.315720
v -0.462563 0.653670 -0.314242
v -0.460417 0.448603 -0.313167
v -0.459525 0.448603 0.310374
v -0.458901 0.239512 -0.102370
v -0.457254 0.239512 0.096179
v -0.440595 0.852012 -0.197074
v -0.440430 0.856926 0.201983
v -0.440241 0.752521 0.302877
v -0.440078 0.750353 -0.301640
v -0.436816 0.352113 -0.299884
v -0.436396 0.252057 -0.198925
v -0.434831 0.352113 0.291975
v -0.433764 0.252057 0.188691
v -0.403783 0.835983 -0.285933
v -0.403705 0.841164 0.286104
v -0.403690 0.961583 0.002323
v -0.403635 0.551137 0.405477
v -0.401839 0.551137 -0.409080
v -0.400974 0.267522 -0.283954
v -0.399268 0.150723 -0.004496
v -0.398138 0.652181 0.400512
v -0.397818 0.267522 0.271123
v -0.396783 0.957027 0.102818
v -0.396783 0.952167 -0.098714
v -0.395615 0.651903 -0.403574
v -0.394718 0.450371 -0.400522
v -0.394664 0.450371 0.393461
v -0.393699 0.157247 -0.101513
v -0.391397 0.157247 0.090985
v -0.380241 0.748279 0.382399
v -0.378408 0.931859 -0.194141
v -0.378299 0.939792 0.196247
v -0.377982 0.746082 -0.385439
v -0.376595 0.356273 -0.380644
v -0.376349 0.174788 -0.194864
v -0.374550 0.356273 0.368779
v -0.372703 0.174788 0.180556
v -0.354107 0.832197 0.355690
v -0.352946 0.905336 -0.277456
v -0.352795 0.827143 -0.358728
v -0.352700 0.913658 0.276232
v -0.351412 0.199628 -0.275611
v -0.351376 0.276002 -0.353941
v -0.348220 0.276002 0.338603
v -0.347366 0.199628 0.258876
v -0.329916 0.888854 0.330868
v -0.329391 0.881458 -0.333861
v -0.328180 0.222696 -0.330000
v -0.324411 0.222696 0.312627
v -0.321633 0.551137 0.475439
v -0.317396 1.032594 0.000558
v -0.317378 0.653871 0.471114
v -0.316176 0.551137 -0.482465
v -0.315277 0.084784 -0.005227
v -0.313879 0.448603 0.461032
v -0.312263 1.020799 -0.102081
v -0.312263 1.027188 0.102986
v -0.311376 0.092617 -0.103510
v -0.311283 0.448603 -0.471384
v -0.311159 0.653670 -0.475592
v -0.308813 0.092617 0.091500
v -0.303774 0.752216 0.448893
v -0.299454 0.994394 -0.199186
v -0.299391 1.004810 0.199245
v -0.299064 0.114880 -0.199101
v -0.298800 0.352113 -0.444949
v -0.298667 0.750196 -0.451523
v -0.298031 0.352113 0.430298
v -0.295016 0.114880 0.183078
v -0.286390 0.840556 0.410102
v -0.284049 0.956144 -0.286210
v -0.283796 0.966876 0.283891
v -0.283424 0.835537 -0.412404
v -0.283393 0.150136 -0.284703
v -0.283177 0.267522 -0.406133
v -0.280431 0.267523 0.388509
v -0.279061 0.150136 0.265745
v -0.276221 0.913109 0.355444
v -0.275328 0.904862 -0.358218
v -0.274640 0.199628 -0.354168
v -0.270991 0.199628 0.335250
v -0.224397 0.551137 0.527728
v -0.221454 0.657557 0.525447
v -0.218834 1.082978 -0.000000
v -0.218634 0.444778 0.509692
v -0.217756 0.037568 -0.004228
v -0.215770 0.551137 -0.536173
v -0.215503 1.076736 0.106359
v -0.215503 1.069541 -0.106359
v -0.215369 0.046361 -0.106887
v -0.213052 0.046361 0.096740
v -0.213005 0.444777 -0.523497
v -0.212381 0.657496 -0.527863
v -0.212002 0.760395 0.499895
v -0.207701 1.038575 -0.207821
v -0.207678 1.050233 0.207678
v -0.207600 0.072277 -0.208062
v -0.207284 0.343459 0.475035
v -0.205994 0.343459 -0.491973
v -0.205055 0.758826 -0.498359
v -0.204056 0.072277 0.193463
v -0.201108 0.855562 0.451659
v -0.199120 0.992218 -0.301489
v -0.198905 1.003798 0.299988
v -0.198607 0.114880 -0.301134
v -0.197963 0.252057 -0.444000
v -0.197302 0.850978 -0.450095
v -0.196360 0.252057 0.425802
v -0.195281 0.938292 0.383442
v -0.194960 0.114880 0.283134
v -0.194228 0.929964 -0.383847
v -0.194010 0.174788 -0.380625
v -0.191218 0.174788 0.362041
v -0.115469 0.551137 0.558352
v -0.113481 0.661218 0.557451
v -0.112530 0.441055 0.538697
v -0.111745 1.111347 -0.000000
v -0.111429 0.008249 -0.002015
v -0.110127 0.016643 -0.110087
v -0.110082 1.104169 0.110081
v -0.110082 1.097432 -0.110082
v -0.108626 0.018497 0.104069
v -0.108134 0.767535 0.530980
v -0.106359 1.064517 -0.215504
v -0.106359 1.075233 0.215503
v -0.106247 0.335634 0.502947
v -0.106205 0.045357 -0.216263
v -0.105762 0.551137 -0.567348
v -0.105261 0.441055 -0.554355
v -0.103927 0.661218 -0.557717
v -0.103908 0.046361 0.205883
v -0.103131 0.335634 -0.520527
v -0.102633 0.866843 0.478222
v -0.102238 1.014633 -0.313545
v -0.102107 1.024845 0.313883
v -0.101930 0.092617 -0.314598
v -0.101266 0.766640 -0.525285
v -0.100836 0.239512 0.451860
v -0.100704 0.239512 -0.468137
v -0.099979 0.954435 0.403615
v -0.099722 0.092617 0.300591
v -0.099595 0.157247 -0.399665
v -0.099177 0.947443 -0.401071
v -0.099154 0.863402 -0.472519
v -0.098274 0.157247 0.384109
v -0.005904 -0.004593 0.000355
v -0.004665 0.002671 -0.111318
v -0.004232 0.008456 0.110147
v -0.001682 0.033221 -0.219596
v -0.000966 0.037568 0.214793
v -0.000943 0.551137 0.565460
v -0.000821 0.439392 0.546276
v -0.000069 0.662882 0.564882
v -0.000000 1.079965 0.218834
v -0.000000 1.109514 0.111745
v -0.000000 1.117423 -0.000000
v 0.000000 1.104320 -0.111745
v 0.000000 1.071960 -0.218834
v 0.000062 0.332303 0.513153
v 0.000558 1.029094 0.319564
v 0.000560 1.021880 -0.317779
v 0.000649 0.234528 0.463806
v 0.000652 0.084072 -0.319971
v 0.001146 0.150723 0.395918
v 0.001252 0.770213 0.539041
v 0.001258 0.084784 0.311389
v 0.001301 0.150723 -0.406829
v 0.001725 0.958197 0.410568
v 0.001957 0.870078 0.485897
v 0.002206 0.953542 -0.406058
v 0.002241 0.234528 -0.476267
v 0.004104 0.332303 -0.529000
v 0.004418 0.868160 -0.478103
v 0.006163 0.439391 -0.562448
v 0.006623 0.769970 -0.531384
v 0.007736 0.551137 -0.574698
v 0.008051 0.662882 -0.564387
v 0.095691 0.003074 0.001654
v 0.096412 0.009489 -0.108716
v 0.096462 0.017146 0.111458
v 0.098447 0.046361 0.215736
v 0.098500 0.040252 -0.215552
v 0.100331 0.092617 0.310872
v 0.100750 0.091213 -0.314428
v 0.100955 0.157247 0.393143
v 0.101947 0.157247 -0.399715
v 0.102342 0.948601 0.402237
v 0.102567 0.239512 0.458390
v 0.102954 0.946371 -0.397408
v 0.102960 1.016744 0.313884
v 0.103048 1.012928 -0.312206
v 0.104542 0.239512 -0.467153
v 0.105172 0.863537 0.473437
v 0.106359 0.335634 0.504775
v 0.106359 1.065345 0.215503
v 0.106359 1.061282 -0.215503
v 0.106890 0.862932 -0.466551
v 0.109031 0.766640 0.523210
v 0.110082 1.094394 0.110081
v 0.110082 1.091334 -0.110082
v 0.110177 0.335634 -0.516946
v 0.110286 0.441055 0.534232
v 0.111745 1.102677 -0.000000
v 0.111935 0.661218 0.548271
v 0.112605 0.551137 0.550342
v 0.112758 0.766640 -0.517262
v 0.115908 0.441055 -0.548126
v 0.117701 0.661218 -0.548660
v 0.119073 0.551137 -0.559005
v 0.193202 0.114880 0.299896
v 0.193606 0.114016 -0.300464
v 0.193834 0.174788 0.376454
v 0.194534 0.072277 0.209704
v 0.194581 0.067876 -0.206152
v 0.194701 0.174788 -0.380588
v 0.195133 0.039828 -0.103195
v 0.195222 0.045602 0.109561
v 0.195352 0.033186 0.003677
v 0.195768 0.928534 0.381140
v 0.196434 0.928168 -0.378141
v 0.199024 0.252057 0.436257
v 0.199191 0.987991 0.299966
v 0.199275 0.989344 -0.299363
v 0.200126 0.252057 -0.442273
v 0.200693 0.850237 0.445100
v 0.202308 0.850235 -0.440550
v 0.207678 0.343459 0.478860
v 0.207678 1.030231 0.207678
v 0.207678 1.033315 -0.207678
v 0.209457 0.343459 -0.486234
v 0.209591 0.758815 0.488995
v 0.212396 0.758814 -0.485522
v 0.215503 1.055930 0.106359
v 0.215503 1.057605 -0.106359
v 0.215542 0.444778 0.504984
v 0.216961 0.657496 0.512500
v 0.218834 1.064463 -0.000000
v 0.219463 0.551137 0.516905
v 0.219496 0.444777 -0.513902
v 0.220968 0.657496 -0.513441
v 0.224019 0.551137 -0.523110
v 0.272630 0.199628 -0.352704
v 0.273288 0.199628 0.352147
v 0.275412 0.901728 0.353051
v 0.275898 0.902855 -0.352371
v 0.276958 0.150136 0.285446
v 0.277174 0.150113 -0.283056
v 0.279492 0.267522 -0.400723
v 0.283619 0.948199 0.283641
v 0.283661 0.952943 -0.283667
v 0.283735 0.267523 0.401097
v 0.283921 0.834751 0.404058
v 0.285350 0.834751 -0.402959
v 0.285514 0.114880 0.202582
v 0.285562 0.113743 -0.195621
v 0.291223 0.092617 0.107727
v 0.291227 0.090627 -0.097338
v 0.292759 0.352113 -0.434668
v 0.292994 0.083747 0.005897
v 0.299080 0.352113 0.436257
v 0.299080 0.981088 0.199024
v 0.299080 0.988374 -0.199024
v 0.299255 0.750160 0.439379
v 0.301538 0.750160 -0.439030
v 0.309172 0.448603 -0.459535
v 0.311625 0.448603 0.458520
v 0.311625 1.001595 0.102533
v 0.311625 1.006084 -0.102533
v 0.311955 0.653670 0.460415
v 0.314326 0.653670 -0.461911
v 0.316609 1.009851 -0.000000
v 0.316656 0.551137 0.466604
v 0.318953 0.551137 -0.470255
v 0.323617 0.222696 -0.326092
v 0.326791 0.222696 0.329690
v 0.327395 0.878298 0.328078
v 0.328731 0.879604 -0.328768
v 0.344100 0.276002 -0.345944
v 0.346249 0.199628 -0.272370
v 0.347268 0.199628 0.277645
v 0.348925 0.826255 0.350400
v 0.350525 0.899499 0.274635
v 0.351509 0.902755 -0.275135
v 0.351937 0.276002 0.352317
v 0.351982 0.826271 -0.352043
v 0.365475 0.356273 -0.368102
v 0.367627 0.174788 0.199397
v 0.367665 0.174788 -0.190321
v 0.372710 0.746001 0.374586
v 0.376181 0.923152 0.194779
v 0.376349 0.927687 -0.194864
v 0.376993 0.746001 -0.377076
v 0.377111 0.356273 0.376672
v 0.380724 0.157247 0.107239
v 0.380783 0.157247 -0.094268
v 0.385340 0.150723 0.007318
v 0.386752 0.450371 -0.389035
v 0.391911 0.651903 0.392886
v 0.393889 0.940047 0.100766
v 0.393889 0.942465 -0.100766
v 0.393944 0.450371 0.393912
v 0.394513 0.651903 -0.394592
v 0.396140 0.267522 -0.277744
v 0.397153 0.834374 0.281662
v 0.400078 0.551137 -0.400489
v 0.400394 0.551137 0.400404
v 0.400414 0.946685 -0.000000
v 0.401000 0.834751 -0.283614
v 0.401008 0.267522 0.285885
v 0.430638 0.750160 0.295960
v 0.431794 0.352113 -0.292049
v 0.434470 0.849642 0.197850
v 0.434714 0.252057 -0.194560
v 0.434999 0.252057 0.203273
v 0.436511 0.850216 -0.199157
v 0.436511 0.750160 -0.299213
v 0.439116 0.352113 0.300360
v 0.455878 0.653670 0.309313
v 0.456315 0.239512 0.108488
v 0.456331 0.239512 -0.096589
v 0.456568 0.448603 -0.308201
v 0.459434 0.862722 0.102041
v 0.459447 0.653670 -0.312110
v 0.459447 0.862761 -0.103019
v 0.460806 0.448603 0.311716
v 0.463901 0.234528 0.006699
v 0.467399 0.551137 0.315836
v 0.467599 0.551137 -0.317173
v 0.467614 0.867507 -0.000661
v 0.477333 0.758814 0.204835
v 0.480855 0.758814 -0.208722
v 0.483733 0.343459 -0.204984
v 0.484645 0.343459 0.209780
v 0.506853 0.657496 0.212352
v 0.508588 0.766640 0.104109
v 0.508834 0.657496 -0.217629
v 0.508834 0.766640 -0.108485
v 0.512424 0.444777 -0.216029
v 0.512655 0.444778 0.214998
v 0.513065 0.335634 -0.103725
v 0.513181 0.335634 0.109059
v 0.518524 0.769970 -0.002595
v 0.519480 0.551137 -0.221023
v 0.519565 0.551137 0.216679
v 0.523004 0.332303 0.002923
v 0.540234 0.661218 -0.114001
v 0.540245 0.661218 0.106166
v 0.545868 0.441055 -0.111470
v 0.546052 0.441055 0.108772
v 0.551216 0.662882 -0.004701
v 0.553160 0.551137 -0.115621
v 0.553279 0.551137 0.107920
v 0.557548 0.439391 -0.001731
v 0.565197 0.551137 -0.004686
vn -0.7096 -0.5096 0.4867
vn -0.7729 -0.3780 0.5096
vn -0.8528 -0.3757 0.3628
vn -0.7732 -0.5288 0.3501
vn -0.8203 -0.2207 0.5276
vn -0.9055 -0.2132 0.3669
vn -0.8414 -0.0237 0.5399
vn -0.9271 -0.0221 0.3741
vn -0.8304 0.1681 0.5313
vn -0.9154 0.1640 0.3677
vn -0.7905 0.3344 0.5131
vn -0.8702 0.3388 0.3577
vn -0.7355 0.4751 0.4831
vn -0.7894 0.5055 0.3484
vn -0.9066 -0.3756 0.1924
vn -0.8198 -0.5395 0.1920
vn -0.9599 -0.2019 0.1943
vn -0.9808 -0.0189 0.1943
vn -0.9674 0.1667 0.1908
vn -0.9184 0.3494 0.1856
vn -0.8353 0.5214 0.1745
vn -0.9264 -0.3767 0.0010
vn -0.8372 -0.5469 0.0022
vn -0.9804 -0.1968 0.0058
vn -0.9998 -0.0171 0.0036
vn -0.9849 0.1733 0.0046
vn -0.9358 0.3525 -0.0054
vn -0.8491 0.5282 -0.0114
vn -0.9165 -0.3606 -0.1732
vn -0.8263 -0.5348 -0.1766
vn -0.9641 -0.1940 -0.1810
vn -0.9820 -0.0198 -0.1879
vn -0.9680 0.1722 -0.1825
vn -0.9183 0.3487 -0.1877
vn -0.8321 0.5214 -0.1891
vn -0.8738 -0.3480 -0.3396
vn -0.7924 -0.5117 -0.3320
vn -0.9149 -0.1927 -0.3549
vn -0.9343 -0.0137 -0.3562
vn -0.9202 0.1698 -0.3527
vn -0.8734 0.3406 -0.3482
vn -0.7935 0.5041 -0.3408
vn -0.8001 -0.3388 -0.4951
vn -0.7364 -0.4842 -0.4725
vn -0.8370 -0.1868 -0.5143
vn -0.8516 -0.0157 -0.5239
vn -0.8407 0.1690 -0.5145
vn -0.8007 0.3388 -0.4940
vn -0.7366 0.4808 -0.4756
vn -0.5683 -0.5979 0.5653
vn -0.6144 -0.5020 0.6087
vn -0.6119 -0.6381 0.4674
vn -0.6611 -0.3844 0.6444
vn -0.6988 -0.2277 0.6781
vn -0.7251 -0.0391 0.6875
vn -0.7227 0.1555 0.6734
vn -0.6855 0.3336 0.6471
vn -0.6405 0.4691 0.6080
vn -0.5906 0.5728 0.5683
vn -0.6324 0.6141 0.4722
vn -0.6741 0.6559 0.3395
vn -0.7041 0.6887 0.1730
vn -0.7167 0.6971 -0.0164
vn -0.7019 0.6871 -0.1877
vn -0.6735 0.6553 -0.3420
vn -0.6315 0.6233 -0.4612
vn -0.5863 0.5842 -0.5613
vn -0.6378 0.4758 -0.6057
vn -0.6863 0.3377 -0.6441
vn -0.7177 0.1700 -0.6753
vn -0.7267 -0.0163 -0.6868
vn -0.7108 -0.1954 -0.6757
vn -0.6786 -0.3464 -0.6477
vn -0.6324 -0.4775 -0.6099
vn -0.6273 -0.6284 -0.4601
vn -0.5809 -0.5842 -0.5668
vn -0.6654 -0.6701 -0.3288
vn -0.6917 -0.7006 -0.1753
vn -0.7022 -0.7120 0.0051
vn -0.6860 -0.7041 0.1834
vn -0.6560 -0.6713 0.3451
vn -0.4996 -0.4973 -0.7093
vn -0.5269 -0.3629 -0.7686
vn -0.3625 -0.3746 -0.8534
vn -0.3468 -0.5310 -0.7731
vn -0.5503 -0.2039 -0.8097
vn -0.3739 -0.2036 -0.9048
vn -0.5634 -0.0158 -0.8260
vn -0.3758 -0.0140 -0.9266
vn -0.5528 0.1724 -0.8153
vn -0.3636 0.1805 -0.9139
vn -0.5328 0.3518 -0.7697
vn -0.3490 0.3676 -0.8620
vn -0.4905 0.4980 -0.7151
vn -0.3310 0.5341 -0.7779
vn -0.1817 -0.3845 -0.9051
vn -0.1818 -0.5505 -0.8148
vn -0.1772 -0.2067 -0.9622
vn -0.1722 -0.0110 -0.9850
vn -0.1673 0.1934 -0.9668
vn -0.1590 0.3819 -0.9104
vn -0.1566 0.5553 -0.8168
vn 0.0131 -0.3845 -0.9230
vn 0.0085 -0.5605 -0.8281
vn 0.0236 -0.2010 -0.9793
vn 0.0334 -0.0057 -0.9994
vn 0.0370 0.1956 -0.9800
vn 0.0342 0.3867 -0.9216
vn 0.0297 0.5600 -0.8280
vn 0.2038 -0.3720 -0.9056
vn 0.1933 -0.5469 -0.8146
vn 0.2261 -0.2001 -0.9533
vn 0.2271 -0.0004 -0.9739
vn 0.2273 0.1943 -0.9543
vn 0.2200 0.3767 -0.8998
vn 0.2080 0.5471 -0.8108
vn 0.4019 -0.3537 -0.8446
vn 0.3749 -0.5091 -0.7748
vn 0.4154 -0.1976 -0.8879
vn 0.4112 -0.0080 -0.9115
vn 0.3983 0.1868 -0.8980
vn 0.3804 0.3631 -0.8506
vn 0.3637 0.5221 -0.7714
vn 0.5751 -0.3363 -0.7458
vn 0.5467 -0.4597 -0.6999
vn 0.5831 -0.2117 -0.7843
vn 0.5792 -0.0247 -0.8148
vn 0.5639 0.1730 -0.8075
vn 0.5329 0.3422 -0.7739
vn 0.4989 0.4925 -0.7131
vn -0.4731 -0.6335 -0.6122
vn -0.4744 0.6353 -0.6094
vn -0.3283 0.6795 -0.6562
vn -0.1611 0.7093 -0.6863
vn 0.0170 0.7189 -0.6949
vn 0.1916 0.7051 -0.6827
vn 0.3454 0.6719 -0.6552
vn 0.4777 0.6280 -0.6144
vn 0.5826 0.5797 -0.5696
vn 0.6339 0.4681 -0.6157
vn 0.6752 0.3329 -0.6582
vn 0.7061 0.1725 -0.6868
vn 0.7161 -0.0334 -0.6972
vn 0.6967 -0.2234 -0.6817
vn 0.6772 -0.3347 -0.6552
vn 0.6533 -0.4317 -0.6220
vn 0.5039 -0.6178 -0.6037
vn 0.6083 -0.5556 -0.5668
vn 0.3576 -0.6726 -0.6478
vn 0.1835 -0.7115 -0.6783
vn 0.0005 -0.7228 -0.6911
vn -0.1730 -0.7086 -0.6840
vn -0.3384 -0.6768 -0.6538
vn 0.7174 -0.4800 -0.5048
vn 0.7544 -0.3504 -0.5551
vn 0.8407 -0.3818 -0.3841
vn 0.7644 -0.5465 -0.3421
vn 0.7941 -0.2143 -0.5687
vn 0.8943 -0.1941 -0.4032
vn 0.8269 -0.0189 -0.5620
vn 0.9195 0.0032 -0.3930
vn 0.8223 0.1789 -0.5402
vn 0.9063 0.1905 -0.3772
vn 0.7860 0.3413 -0.5155
vn 0.8656 0.3540 -0.3541
vn 0.7278 0.4867 -0.4831
vn 0.7846 0.5199 -0.3379
vn 0.8950 -0.4031 -0.1912
vn 0.7917 -0.5870 -0.1694
vn 0.9607 -0.1909 -0.2013
vn 0.9786 0.0201 -0.2046
vn 0.9609 0.1983 -0.1935
vn 0.9105 0.3705 -0.1834
vn 0.8226 0.5426 -0.1702
vn 0.9126 -0.4089 -0.0028
vn 0.8006 -0.5992 -0.0007
vn 0.9830 -0.1835 -0.0049
vn 0.9997 0.0259 -0.0013
vn 0.9791 0.2032 0.0024
vn 0.9272 0.3746 0.0031
vn 0.8325 0.5539 0.0047
vn 0.9001 -0.3942 0.1856
vn 0.7947 -0.5838 0.1662
vn 0.9643 -0.1759 0.1977
vn 0.9783 0.0244 0.2057
vn 0.9581 0.2058 0.1991
vn 0.9085 0.3700 0.1944
vn 0.8198 0.5409 0.1882
vn 0.8605 -0.3632 0.3573
vn 0.7639 -0.5542 0.3306
vn 0.9107 -0.1638 0.3792
vn 0.9215 0.0257 0.3875
vn 0.9012 0.1991 0.3849
vn 0.8586 0.3539 0.3708
vn 0.7839 0.5136 0.3490
vn 0.7791 -0.3369 0.5287
vn 0.7134 -0.5070 0.4837
vn 0.8238 -0.1590 0.5441
vn 0.8361 0.0214 0.5482
vn 0.8217 0.1979 0.5344
vn 0.7900 0.3402 0.5101
vn 0.7380 0.4735 0.4807
vn 0.6327 -0.6289 -0.4519
vn 0.6271 0.6258 -0.4637
vn 0.6661 0.6738 -0.3198
vn 0.6858 0.7107 -0.1567
vn 0.6915 0.7223 0.0122
vn 0.6797 0.7124 0.1748
vn 0.6606 0.6742 0.3301
vn 0.6322 0.6251 0.4578
vn 0.6005 0.5773 0.5533
vn 0.6553 0.4558 0.6024
vn 0.6924 0.3263 0.6435
vn 0.7087 0.1840 0.6811
vn 0.7122 0.0137 0.7019
vn 0.6946 -0.1632 0.7007
vn 0.6654 -0.3222 0.6734
vn 0.6170 -0.4726 0.6292
vn 0.6098 -0.6525 0.4499
vn 0.5662 -0.5935 0.5720
vn 0.6388 -0.7049 0.3083
vn 0.6573 -0.7372 0.1565
vn 0.6661 -0.7459 -0.0007
vn 0.6628 -0.7335 -0.1507
vn 0.6526 -0.6942 -0.3036
vn 0.4817 -0.4807 0.7328
vn 0.5077 -0.3284 0.7965
vn 0.3436 -0.3399 0.8755
vn 0.3359 -0.5049 0.7952
vn 0.5268 -0.1755 0.8317
vn 0.3606 -0.1866 0.9139
vn 0.5488 -0.0071 0.8359
vn 0.3795 -0.0372 0.9245
vn 0.5559 0.1598 0.8158
vn 0.3975 0.1394 0.9069
vn 0.5528 0.3243 0.7676
vn 0.3962 0.3299 0.8568
vn 0.5234 0.4799 0.7041
vn 0.3846 0.5204 0.7624
vn 0.1703 -0.3599 0.9173
vn 0.1599 -0.5318 0.8317
vn 0.1958 -0.2066 0.9586
vn 0.2170 -0.0590 0.9744
vn 0.2297 0.1252 0.9652
vn 0.2299 0.3408 0.9116
vn 0.2240 0.5467 0.8068
vn -0.0098 -0.3814 0.9244
vn -0.0196 -0.5410 0.8408
vn 0.0132 -0.2354 0.9718
vn 0.0345 -0.0759 0.9965
vn 0.0407 0.1271 0.9911
vn 0.0373 0.3568 0.9334
vn 0.0260 0.5586 0.8291
vn -0.1825 -0.3922 0.9016
vn -0.1981 -0.5466 0.8136
vn -0.1747 -0.2514 0.9520
vn -0.1731 -0.0834 0.9814
vn -0.1731 0.1344 0.9757
vn -0.1781 0.3603 0.9157
vn -0.1799 0.5524 0.8139
vn -0.3519 -0.4009 0.8458
vn -0.3495 -0.5397 0.7659
vn -0.3653 -0.2572 0.8946
vn -0.3764 -0.0693 0.9239
vn -0.3858 0.1444 0.9112
vn -0.3769 0.3566 0.8549
vn -0.3626 0.5300 0.7665
vn -0.5121 -0.3932 0.7637
vn -0.4834 -0.5181 0.7056
vn -0.5431 -0.2463 0.8027
vn -0.5669 -0.0541 0.8220
vn -0.5686 0.1567 0.8076
vn -0.5502 0.3410 0.7622
vn -0.5120 0.5000 0.6985
vn 0.4627 -0.6353 0.6183
vn 0.4982 0.6303 0.5954
vn 0.3723 0.6730 0.6391
vn 0.2180 0.7070 0.6728
vn 0.0320 0.7198 0.6934
vn -0.1668 0.7073 0.6869
vn -0.3414 0.6739 0.6552
vn -0.4868 0.6240 0.6113
vn -0.4708 -0.6377 0.6097
vn -0.3476 -0.6762 0.6496
vn -0.2021 -0.7005 0.6845
vn -0.0272 -0.7102 0.7035
vn 0.1623 -0.7009 0.6945
vn 0.3314 -0.6727 0.6615
vn -0.4841 -0.7350 -0.4747
vn -0.3392 -0.7986 -0.4973
vn -0.3424 -0.8752 -0.3417
vn -0.5046 -0.7963 -0.3336
vn -0.1858 -0.8359 -0.5165
vn -0.1901 -0.9164 -0.3522
vn -0.0084 -0.8479 -0.5302
vn -0.0214 -0.9333 -0.3584
vn 0.1819 -0.8336 -0.5215
vn 0.1814 -0.9179 -0.3529
vn 0.3581 -0.7940 -0.4913
vn 0.3685 -0.8706 -0.3258
vn 0.5007 -0.7380 -0.4525
vn 0.5205 -0.7983 -0.3029
vn -0.3481 -0.9207 -0.1763
vn -0.5281 -0.8327 -0.1667
vn -0.1963 -0.9652 -0.1730
vn -0.0247 -0.9849 -0.1713
vn 0.1837 -0.9694 -0.1629
vn 0.3767 -0.9143 -0.1491
vn 0.5265 -0.8382 -0.1425
vn -0.3563 -0.9343 0.0093
vn -0.5329 -0.8461 0.0102
vn -0.1954 -0.9806 0.0142
vn -0.0220 -0.9995 0.0242
vn 0.1846 -0.9824 0.0270
vn 0.3757 -0.9265 0.0206
vn 0.5217 -0.8530 0.0142
vn -0.3552 -0.9157 0.1878
vn -0.5202 -0.8343 0.1827
vn -0.1899 -0.9637 0.1877
vn -0.0180 -0.9806 0.1953
vn 0.1801 -0.9655 0.1882
vn 0.3603 -0.9167 0.1725
vn 0.5081 -0.8458 0.1625
vn -0.3489 -0.8704 0.3475
vn -0.5025 -0.7949 0.3400
vn -0.1955 -0.9134 0.3570
vn -0.0198 -0.9332 0.3587
vn 0.1734 -0.9227 0.3444
vn 0.3477 -0.8805 0.3223
vn 0.4943 -0.8124 0.3092
vn -0.3462 -0.7930 0.5013
vn -0.4792 -0.7366 0.4774
vn -0.1963 -0.8320 0.5188
vn -0.0197 -0.8496 0.5270
vn 0.1676 -0.8385 0.5184
vn 0.3322 -0.8027 0.4952
vn 0.4719 -0.7487 0.4655
vn 0.4941 0.7268 -0.4771
vn 0.3474 0.7905 -0.5044
vn 0.3652 0.8685 -0.3352
vn 0.5176 0.7932 -0.3209
vn 0.1887 0.8305 -0.5241
vn 0.1959 0.9134 -0.3569
vn 0.0151 0.8464 -0.5323
vn 0.0189 0.9290 -0.3695
vn -0.1632 0.8333 -0.5282
vn -0.1627 0.9134 -0.3731
vn -0.3277 0.7960 -0.5089
vn -0.3407 0.8663 -0.3652
vn -0.4837 0.7323 -0.4793
vn -0.5125 0.7850 -0.3480
vn 0.3870 0.9075 -0.1631
vn 0.5389 0.8293 -0.1477
vn 0.2150 0.9593 -0.1829
vn 0.0265 0.9788 -0.2032
vn -0.1585 0.9651 -0.2087
vn -0.3508 0.9129 -0.2087
vn -0.5351 0.8207 -0.2004
vn 0.4089 0.9126 0.0033
vn 0.5453 0.8382 0.0111
vn 0.2286 0.9734 -0.0133
vn 0.0343 0.9991 -0.0248
vn -0.1528 0.9880 -0.0246
vn -0.3561 0.9340 -0.0280
vn -0.5467 0.8370 -0.0227
vn 0.4114 0.8962 0.1663
vn 0.5418 0.8235 0.1680
vn 0.2357 0.9572 0.1681
vn 0.0422 0.9846 0.1698
vn -0.1551 0.9740 0.1651
vn -0.3509 0.9211 0.1686
vn -0.5412 0.8241 0.1673
vn 0.3970 0.8566 0.3296
vn 0.5280 0.7859 0.3218
vn 0.2314 0.9080 0.3493
vn 0.0381 0.9328 0.3584
vn -0.1551 0.9203 0.3592
vn -0.3495 0.8691 0.3500
vn -0.5197 0.7811 0.3461
vn 0.3819 0.7831 0.4908
vn 0.5060 0.7287 0.4614
vn 0.2180 0.8284 0.5160
vn 0.0370 0.8419 0.5383
vn -0.1570 0.8301 0.5351
vn -0.3400 0.7867 0.5153
vn -0.4964 0.7176 0.4884
vt 0.500000 0.875000
vt 0.531250 0.875000
vt 0.500000 0.906250
vt 0.500000 0.843750
vt 0.468750 0.875000
vt 0.531250 0.843750
vt 0.531250 0.906250
vt 0.468750 0.843750
vt 0.468750 0.906250
vt 0.562500 0.875000
vt 0.500000 0.812500
vt 0.500000 0.937500
vt 0.437500 0.875000
vt 0.562500 0.906250
vt 0.562500 0.843750
vt 0.531250 0.812500
vt 0.531250 0.937500
vt 0.468750 0.812500
vt 0.468750 0.937500
vt 0.437500 0.843750
vt 0.437500 0.906250
vt 0.562500 0.812500
vt 0.562500 0.937500
vt 0.437500 0.812500
vt 0.437500 0.937500
vt 0.593750 0.875000
vt 0.500000 0.781250
vt 0.500000 0.968750
vt 0.406250 0.875000
vt 0.593750 0.906250
vt 0.593750 0.843750
vt 0.531250 0.968750
vt 0.531250 0.781250
vt 0.468750 0.781250
vt 0.468750 0.968750
vt 0.406250 0.843750
vt 0.406250 0.906250
vt 0.593750 0.812500
vt 0.593750 0.937500
vt 0.562500 0.968750
vt 0.562500 0.781250
vt 0.437500 0.781250
vt 0.406250 0.812500
vt 0.437500 0.968750
vt 0.406250 0.937500
vt 0.593750 0.781250
vt 0.593750 0.968750
vt 0.625000 0.875000
vt 0.875000 0.375000
vt 0.500000 1.000000
vt 0.500000 -0.000000
vt 0.500000 0.750000
vt 0.406250 0.781250
vt 0.375000 0.875000
vt 0.125000 0.375000
vt 0.531250 1.000000
vt 0.531250 -0.000000
vt 0.406250 0.968750
vt 0.625000 0.906250
vt 0.875000 0.343750
vt 0.625000 0.843750
vt 0.875000 0.406250
vt 0.531250 0.750000
vt 0.468750 0.750000
vt 0.468750 1.000000
vt 0.468750 -0.000000
vt 0.375000 0.843750
vt 0.125000 0.406250
vt 0.375000 0.906250
vt 0.125000 0.343750
vt 0.562500 1.000000
vt 0.562500 -0.000000
vt 0.625000 0.812500
vt 0.875000 0.437500
vt 0.625000 0.937500
vt 0.875000 0.312500
vt 0.562500 0.750000
vt 0.437500 0.750000
vt 0.375000 0.812500
vt 0.125000 0.437500
vt 0.437500 1.000000
vt 0.437500 -0.000000
vt 0.375000 0.937500
vt 0.125000 0.312500
vt 0.593750 1.000000
vt 0.593750 -0.000000
vt 0.625000 0.781250
vt 0.875000 0.468750
vt 0.593750 0.750000
vt 0.625000 0.968750
vt 0.875000 0.281250
vt 0.375000 0.781250
vt 0.125000 0.468750
vt 0.406250 0.750000
vt 0.406250 1.000000
vt 0.406250 -0.000000
vt 0.375000 0.968750
vt 0.125000 0.281250
vt 0.625000 1.000000
vt 0.625000 -0.000000
vt 0.875000 0.250000
vt 0.625000 0.750000
vt 0.875000 0.500000
vt 0.375000 0.750000
vt 0.125000 0.500000
vt 0.375000 1.000000
vt 0.375000 -0.000000
vt 0.125000 0.250000
vt 0.500000 0.031250
vt 0.843750 0.375000
vt 0.531250 0.031250
vt 0.500000 0.718750
vt 0.156250 0.375000
vt 0.468750 0.031250
vt 0.843750 0.406250
vt 0.843750 0.343750
vt 0.156250 0.406250
vt 0.468750 0.718750
vt 0.531250 0.718750
vt 0.156250 0.343750
vt 0.562500 0.031250
vt 0.843750 0.437500
vt 0.843750 0.312500
vt 0.156250 0.437500
vt 0.437500 0.718750
vt 0.562500 0.718750
vt 0.437500 0.031250
vt 0.156250 0.312500
vt 0.593750 0.031250
vt 0.843750 0.468750
vt 0.843750 0.281250
vt 0.593750 0.718750
vt 0.156250 0.468750
vt 0.406250 0.718750
vt 0.406250 0.031250
vt 0.156250 0.281250
vt 0.625000 0.031250
vt 0.843750 0.250000
vt 0.625000 0.718750
vt 0.843750 0.500000
vt 0.375000 0.718750
vt 0.156250 0.500000
vt 0.375000 0.031250
vt 0.156250 0.250000
vt 0.500000 0.062500
vt 0.531250 0.062500
vt 0.812500 0.375000
vt 0.468750 0.062500
vt 0.187500 0.375000
vt 0.500000 0.687500
vt 0.812500 0.343750
vt 0.812500 0.406250
vt 0.187500 0.406250
vt 0.187500 0.343750
vt 0.468750 0.687500
vt 0.531250 0.687500
vt 0.562500 0.062500
vt 0.812500 0.437500
vt 0.812500 0.312500
vt 0.187500 0.437500
vt 0.437500 0.062500
vt 0.437500 0.687500
vt 0.562500 0.687500
vt 0.187500 0.312500
vt 0.593750 0.062500
vt 0.812500 0.468750
vt 0.812500 0.281250
vt 0.187500 0.468750
vt 0.406250 0.687500
vt 0.593750 0.687500
vt 0.406250 0.062500
vt 0.625000 0.062500
vt 0.812500 0.250000
vt 0.187500 0.281250
vt 0.625000 0.687500
vt 0.812500 0.500000
vt 0.375000 0.687500
vt 0.187500 0.500000
vt 0.375000 0.062500
vt 0.187500 0.250000
vt 0.500000 0.093750
vt 0.531250 0.093750
vt 0.468750 0.093750
vt 0.781250 0.375000
vt 0.218750 0.375000
vt 0.218750 0.406250
vt 0.781250 0.343750
vt 0.781250 0.406250
vt 0.218750 0.343750
vt 0.562500 0.093750
vt 0.781250 0.437500
vt 0.781250 0.312500
vt 0.437500 0.093750
vt 0.218750 0.437500
vt 0.500000 0.656250
vt 0.468750 0.656250
vt 0.531250 0.656250
vt 0.218750 0.312500
vt 0.437500 0.656250
vt 0.593750 0.093750
vt 0.781250 0.468750
vt 0.781250 0.281250
vt 0.218750 0.468750
vt 0.562500 0.656250
vt 0.406250 0.093750
vt 0.406250 0.656250
vt 0.625000 0.093750
vt 0.781250 0.250000
vt 0.218750 0.281250
vt 0.375000 0.656250
vt 0.218750 0.500000
vt 0.625000 0.656250
vt 0.781250 0.500000
vt 0.593750 0.656250
vt 0.375000 0.093750
vt 0.218750 0.250000
vt 0.250000 0.375000
vt 0.250000 0.406250
vt 0.250000 0.343750
vt 0.250000 0.437500
vt 0.250000 0.312500
vt 0.500000 0.125000
vt 0.468750 0.125000
vt 0.531250 0.125000
vt 0.750000 0.312500
vt 0.750000 0.343750
vt 0.750000 0.375000
vt 0.750000 0.406250
vt 0.750000 0.437500
vt 0.437500 0.125000
vt 0.750000 0.281250
vt 0.750000 0.468750
vt 0.406250 0.125000
vt 0.250000 0.468750
vt 0.375000 0.125000
vt 0.250000 0.250000
vt 0.562500 0.125000
vt 0.250000 0.281250
vt 0.375000 0.625000
vt 0.250000 0.500000
vt 0.625000 0.125000
vt 0.750000 0.250000
vt 0.593750 0.125000
vt 0.625000 0.625000
vt 0.750000 0.500000
vt 0.406250 0.625000
vt 0.437500 0.625000
vt 0.593750 0.625000
vt 0.468750 0.625000
vt 0.562500 0.625000
vt 0.500000 0.625000
vt 0.531250 0.625000
vt 0.281250 0.375000
vt 0.281250 0.406250
vt 0.281250 0.343750
vt 0.281250 0.312500
vt 0.281250 0.437500
vt 0.281250 0.281250
vt 0.281250 0.468750
vt 0.375000 0.156250
vt 0.281250 0.250000
vt 0.375000 0.593750
vt 0.281250 0.500000
vt 0.625000 0.156250
vt 0.718750 0.250000
vt 0.406250 0.156250
vt 0.625000 0.593750
vt 0.718750 0.500000
vt 0.718750 0.281250
vt 0.718750 0.468750
vt 0.406250 0.593750
vt 0.593750 0.156250
vt 0.437500 0.156250
vt 0.718750 0.312500
vt 0.718750 0.437500
vt 0.593750 0.593750
vt 0.562500 0.156250
vt 0.718750 0.343750
vt 0.718750 0.406250
vt 0.437500 0.593750
vt 0.468750 0.156250
vt 0.718750 0.375000
vt 0.531250 0.156250
vt 0.500000 0.156250
vt 0.562500 0.593750
vt 0.468750 0.593750
vt 0.531250 0.593750
vt 0.500000 0.593750
vt 0.312500 0.281250
vt 0.312500 0.468750
vt 0.375000 0.187500
vt 0.312500 0.250000
vt 0.312500 0.312500
vt 0.312500 0.437500
vt 0.375000 0.562500
vt 0.312500 0.500000
vt 0.312500 0.406250
vt 0.312500 0.343750
vt 0.312500 0.375000
vt 0.625000 0.187500
vt 0.687500 0.250000
vt 0.625000 0.562500
vt 0.687500 0.500000
vt 0.406250 0.187500
vt 0.687500 0.281250
vt 0.687500 0.468750
vt 0.406250 0.562500
vt 0.593750 0.187500
vt 0.593750 0.562500
vt 0.437500 0.187500
vt 0.687500 0.312500
vt 0.687500 0.437500
vt 0.437500 0.562500
vt 0.562500 0.187500
vt 0.562500 0.562500
vt 0.687500 0.343750
vt 0.687500 0.406250
vt 0.468750 0.187500
vt 0.531250 0.187500
vt 0.687500 0.375000
vt 0.500000 0.187500
vt 0.468750 0.562500
vt 0.531250 0.562500
vt 0.500000 0.562500
vt 0.375000 0.531250
vt 0.343750 0.500000
vt 0.375000 0.218750
vt 0.343750 0.250000
vt 0.625000 0.218750
vt 0.656250 0.250000
vt 0.625000 0.531250
vt 0.656250 0.500000
vt 0.343750 0.281250
vt 0.343750 0.468750
vt 0.406250 0.531250
vt 0.656250 0.281250
vt 0.656250 0.468750
vt 0.406250 0.218750
vt 0.593750 0.218750
vt 0.593750 0.531250
vt 0.343750 0.312500
vt 0.343750 0.437500
vt 0.343750 0.343750
vt 0.343750 0.406250
vt 0.437500 0.531250
vt 0.343750 0.375000
vt 0.437500 0.218750
vt 0.656250 0.312500
vt 0.656250 0.437500
vt 0.562500 0.218750
vt 0.562500 0.531250
vt 0.468750 0.531250
vt 0.468750 0.218750
vt 0.656250 0.343750
vt 0.656250 0.406250
vt 0.531250 0.218750
vt 0.531250 0.531250
vt 0.656250 0.375000
vt 0.500000 0.218750
vt 0.500000 0.531250
vt 0.375000 0.500000
vt 0.375000 0.250000
vt 0.625000 0.250000
vt 0.625000 0.500000
vt 0.406250 0.500000
vt 0.375000 0.468750
vt 0.375000 0.281250
vt 0.593750 0.250000
vt 0.625000 0.281250
vt 0.625000 0.468750
vt 0.406250 0.250000
vt 0.593750 0.500000
vt 0.437500 0.500000
vt 0.375000 0.312500
vt 0.375000 0.437500
vt 0.562500 0.250000
vt 0.625000 0.312500
vt 0.625000 0.437500
vt 0.562500 0.500000
vt 0.437500 0.250000
vt 0.375000 0.343750
vt 0.375000 0.406250
vt 0.375000 0.375000
vt 0.468750 0.500000
vt 0.531250 0.250000
vt 0.625000 0.343750
vt 0.625000 0.406250
vt 0.468750 0.250000
vt 0.531250 0.500000
vt 0.406250 0.468750
vt 0.593750 0.281250
vt 0.500000 0.500000
vt 0.500000 0.250000
vt 0.625000 0.375000
vt 0.593750 0.468750
vt 0.406250 0.281250
vt 0.562500 0.281250
vt 0.437500 0.468750
vt 0.593750 0.312500
vt 0.406250 0.437500
vt 0.406250 0.312500
vt 0.593750 0.437500
vt 0.562500 0.468750
vt 0.437500 0.281250
vt 0.531250 0.281250
vt 0.406250 0.343750
vt 0.406250 0.406250
vt 0.468750 0.468750
vt 0.593750 0.343750
vt 0.531250 0.468750
vt 0.593750 0.406250
vt 0.468750 0.281250
vt 0.406250 0.375000
vt 0.500000 0.281250
vt 0.500000 0.468750
vt 0.593750 0.375000
vt 0.562500 0.312500
vt 0.562500 0.437500
vt 0.437500 0.437500
vt 0.437500 0.312500
vt 0.531250 0.312500
vt 0.562500 0.343750
vt 0.531250 0.437500
vt 0.562500 0.406250
vt 0.468750 0.437500
vt 0.468750 0.312500
vt 0.437500 0.406250
vt 0.437500 0.343750
vt 0.562500 0.375000
vt 0.500000 0.437500
vt 0.500000 0.312500
vt 0.437500 0.375000
vt 0.531250 0.406250
vt 0.531250 0.343750
vt 0.468750 0.406250
vt 0.468750 0.343750
vt 0.531250 0.375000
vt 0.500000 0.406250
vt 0.500000 0.343750
vt 0.468750 0.375000
vt 0.500000 0.375000
s 1
usemtl Material.001_SMR.001
f 54/58/1 44/44/2 25/25/3
f 54/58/1 25/25/3 45/45/4
f 44/44/2 35/35/5 19/19/6
f 44/44/2 19/19/6 25/25/3
f 35/35/5 28/28/7 12/12/8
f 35/35/5 12/12/8 19/19/6
f 28/28/7 32/32/9 17/17/10
f 28/28/7 17/17/10 12/12/8
f 32/32/9 40/40/11 23/23/12
f 32/32/9 23/23/12 17/17/10
f 40/40/11 47/47/13 39/39/14
f 40/40/11 39/39/14 23/23/12
f 45/45/4 25/25/3 21/21/15
f 45/45/4 21/21/15 37/37/16
f 25/25/3 19/19/6 9/9/17
f 25/25/3 9/9/17 21/21/15
f 19/19/6 12/12/8 3/3/18
f 19/19/6 3/3/18 9/9/17
f 12/12/8 17/17/10 7/7/19
f 12/12/8 7/7/19 3/3/18
f 17/17/10 23/23/12 14/14/20
f 17/17/10 14/14/20 7/7/19
f 23/23/12 39/39/14 30/30/21
f 23/23/12 30/30/21 14/14/20
f 37/37/16 21/21/15 13/13/22
f 37/37/16 13/13/22 29/29/23
f 21/21/15 9/9/17 5/5/24
f 21/21/15 5/5/24 13/13/22
f 9/9/17 3/3/18 1/1/25
f 9/9/17 1/1/25 5/5/24
f 3/3/18 7/7/19 2/2/26
f 3/3/18 2/2/26 1/1/25
f 7/7/19 14/14/20 10/10/27
f 7/7/19 10/10/27 2/2/26
f 14/14/20 30/30/21 26/26/28
f 14/14/20 26/26/28 10/10/27
f 29/29/23 13/13/22 20/20/29
f 29/29/23 20/20/29 36/36/30
f 13/13/22 5/5/24 8/8/31
f 13/13/22 8/8/31 20/20/29
f 5/5/24 1/1/25 4/4/32
f 5/5/24 4/4/32 8/8/31
f 1/1/25 2/2/26 6/6/33
f 1/1/25 6/6/33 4/4/32
f 2/2/26 10/10/27 15/15/34
f 2/2/26 15/15/34 6/6/33
f 10/10/27 26/26/28 31/31/35
f 10/10/27 31/31/35 15/15/34
f 36/36/30 20/20/29 24/24/36
f 36/36/30 24/24/36 43/43/37
f 20/20/29 8/8/31 18/18/38
f 20/20/29 18/18/38 24/24/36
f 8/8/31 4/4/32 11/11/39
f 8/8/31 11/11/39 18/18/38
f 4/4/32 6/6/33 16/16/40
f 4/4/32 16/16/40 11/11/39
f 6/6/33 15/15/34 22/22/41
f 6/6/33 22/22/41 16/16/40
f 15/15/34 31/31/35 38/38/42
f 15/15/34 38/38/42 22/22/41
f 43/43/37 24/24/36 42/42/43
f 43/43/37 42/42/43 51/53/44
f 24/24/36 18/18/38 34/34/45
f 24/24/36 34/34/45 42/42/43
f 18/18/38 11/11/39 27/27/46
f 18/18/38 27/27/46 34/34/45
f 11/11/39 16/16/40 33/33/47
f 11/11/39 33/33/47 27/27/46
f 16/16/40 22/22/41 41/41/48
f 16/16/40 41/41/48 33/33/47
f 22/22/41 38/38/42 46/46/49
f 22/22/41 46/46/49 41/41/48
f 81/106/50 76/95/51 54/58/1
f 81/106/50 54/58/1 77/97/52
f 76/95/51 68/81/53 44/44/2
f 76/95/51 44/44/2 54/58/1
f 68/81/53 59/65/54 35/35/5
f 68/81/53 35/35/5 44/44/2
f 59/65/54 49/50/55 28/28/7
f 59/65/54 28/28/7 35/35/5
f 49/50/55 53/56/56 32/32/9
f 49/50/55 32/32/9 28/28/7
f 53/56/56 62/71/57 40/40/11
f 53/56/56 40/40/11 32/32/9
f 62/71/57 70/85/58 47/47/13
f 62/71/57 47/47/13 40/40/11
f 70/85/58 78/99/59 73/90/60
f 70/85/58 73/90/60 47/47/13
f 47/47/13 73/90/60 64/75/61
f 47/47/13 64/75/61 39/39/14
f 39/39/14 64/75/61 55/59/62
f 39/39/14 55/59/62 30/30/21
f 30/30/21 55/59/62 48/48/63
f 30/30/21 48/48/63 26/26/28
f 26/26/28 48/48/63 56/61/64
f 26/26/28 56/61/64 31/31/35
f 31/31/35 56/61/64 63/73/65
f 31/31/35 63/73/65 38/38/42
f 38/38/42 63/73/65 71/87/66
f 38/38/42 71/87/66 46/46/49
f 46/46/49 71/87/66 79/102/67
f 46/46/49 79/102/67 72/89/68
f 41/41/48 46/46/49 72/89/68
f 41/41/48 72/89/68 65/77/69
f 33/33/47 41/41/48 65/77/69
f 33/33/47 65/77/69 57/63/70
f 27/27/46 33/33/47 57/63/70
f 27/27/46 57/63/70 50/52/71
f 34/34/45 27/27/46 50/52/71
f 34/34/45 50/52/71 58/64/72
f 42/42/43 34/34/45 58/64/72
f 42/42/43 58/64/72 66/78/73
f 51/53/44 42/42/43 66/78/73
f 51/53/44 66/78/73 75/94/74
f 74/92/75 51/53/44 75/94/74
f 74/92/75 75/94/74 80/104/76
f 67/79/77 43/43/37 51/53/44
f 67/79/77 51/53/44 74/92/75
f 60/67/78 36/36/30 43/43/37
f 60/67/78 43/43/37 67/79/77
f 52/54/79 29/29/23 36/36/30
f 52/54/79 36/36/30 60/67/78
f 61/69/80 37/37/16 29/29/23
f 61/69/80 29/29/23 52/54/79
f 69/83/81 45/45/4 37/37/16
f 69/83/81 37/37/16 61/69/80
f 77/97/52 54/58/1 45/45/4
f 77/97/52 45/45/4 69/83/81
f 107/134/82 98/125/83 131/162/84
f 107/134/82 131/162/84 138/169/85
f 98/125/83 91/118/86 124/155/87
f 98/125/83 124/155/87 131/162/84
f 91/118/86 85/112/88 119/150/89
f 91/118/86 119/150/89 124/155/87
f 85/112/88 92/119/90 125/156/91
f 85/112/88 125/156/91 119/150/89
f 92/119/90 99/126/92 132/163/93
f 92/119/90 132/163/93 125/156/91
f 99/126/92 105/132/94 139/170/95
f 99/126/92 139/170/95 132/163/93
f 138/169/85 131/162/84 164/199/96
f 138/169/85 164/199/96 171/206/97
f 131/162/84 124/155/87 161/196/98
f 131/162/84 161/196/98 164/199/96
f 124/155/87 119/150/89 160/195/99
f 124/155/87 160/195/99 161/196/98
f 119/150/89 125/156/91 162/197/100
f 119/150/89 162/197/100 160/195/99
f 125/156/91 132/163/93 169/204/101
f 125/156/91 169/204/101 162/197/100
f 132/163/93 139/170/95 176/214/102
f 132/163/93 176/214/102 169/204/101
f 171/206/97 164/199/96 204/247/103
f 171/206/97 204/247/103 203/246/104
f 164/199/96 161/196/98 206/249/105
f 164/199/96 206/249/105 204/247/103
f 161/196/98 160/195/99 208/251/106
f 161/196/98 208/251/106 206/249/105
f 160/195/99 162/197/100 209/252/107
f 160/195/99 209/252/107 208/251/106
f 162/197/100 169/204/101 207/250/108
f 162/197/100 207/250/108 209/252/107
f 169/204/101 176/214/102 205/248/109
f 169/204/101 205/248/109 207/250/108
f 203/246/104 204/247/103 233/280/110
f 203/246/104 233/280/110 224/271/111
f 204/247/103 206/249/105 239/286/112
f 204/247/103 239/286/112 233/280/110
f 206/249/105 208/251/106 241/288/113
f 206/249/105 241/288/113 239/286/112
f 208/251/106 209/252/107 240/287/114
f 208/251/106 240/287/114 241/288/113
f 209/252/107 207/250/108 238/285/115
f 209/252/107 238/285/115 240/287/114
f 207/250/108 205/248/109 229/276/116
f 207/250/108 229/276/116 238/285/115
f 224/271/111 233/280/110 262/313/117
f 224/271/111 262/313/117 256/307/118
f 233/280/110 239/286/112 271/322/119
f 233/280/110 271/322/119 262/313/117
f 239/286/112 241/288/113 273/324/120
f 239/286/112 273/324/120 271/322/119
f 241/288/113 240/287/114 272/323/121
f 241/288/113 272/323/121 273/324/120
f 240/287/114 238/285/115 264/315/122
f 240/287/114 264/315/122 272/323/121
f 238/285/115 229/276/116 258/309/123
f 238/285/115 258/309/123 264/315/122
f 256/307/118 262/313/117 290/345/124
f 256/307/118 290/345/124 280/335/125
f 262/313/117 271/322/119 297/352/126
f 262/313/117 297/352/126 290/345/124
f 271/322/119 273/324/120 305/360/127
f 271/322/119 305/360/127 297/352/126
f 273/324/120 272/323/121 302/357/128
f 273/324/120 302/357/128 305/360/127
f 272/323/121 264/315/122 296/351/129
f 272/323/121 296/351/129 302/357/128
f 264/315/122 258/309/123 285/340/130
f 264/315/122 285/340/130 296/351/129
f 80/104/76 75/94/74 107/134/82
f 80/104/76 107/134/82 112/141/131
f 75/94/74 66/78/73 98/125/83
f 75/94/74 98/125/83 107/134/82
f 66/78/73 58/64/72 91/118/86
f 66/78/73 91/118/86 98/125/83
f 58/64/72 50/52/71 85/112/88
f 58/64/72 85/112/88 91/118/86
f 50/52/71 57/63/70 92/119/90
f 50/52/71 92/119/90 85/112/88
f 57/63/70 65/77/69 99/126/92
f 57/63/70 99/126/92 92/119/90
f 65/77/69 72/89/68 105/132/94
f 65/77/69 105/132/94 99/126/92
f 72/89/68 79/102/67 111/139/132
f 72/89/68 111/139/132 105/132/94
f 105/132/94 111/139/132 143/175/133
f 105/132/94 143/175/133 139/170/95
f 139/170/95 143/175/133 175/212/134
f 139/170/95 175/212/134 176/214/102
f 176/214/102 175/212/134 202/244/135
f 176/214/102 202/244/135 205/248/109
f 205/248/109 202/244/135 221/267/136
f 205/248/109 221/267/136 229/276/116
f 229/276/116 221/267/136 252/302/137
f 229/276/116 252/302/137 258/309/123
f 258/309/123 252/302/137 277/331/138
f 258/309/123 277/331/138 285/340/130
f 285/340/130 277/331/138 309/364/139
f 285/340/130 309/364/139 317/372/140
f 296/351/129 285/340/130 317/372/140
f 296/351/129 317/372/140 324/379/141
f 302/357/128 296/351/129 324/379/141
f 302/357/128 324/379/141 334/389/142
f 305/360/127 302/357/128 334/389/142
f 305/360/127 334/389/142 337/392/143
f 297/352/126 305/360/127 337/392/143
f 297/352/126 337/392/143 329/384/144
f 290/345/124 297/352/126 329/384/144
f 290/345/124 329/384/144 318/373/145
f 280/335/125 290/345/124 318/373/145
f 280/335/125 318/373/145 310/365/146
f 274/325/147 280/335/125 310/365/146
f 274/325/147 310/365/146 306/361/148
f 247/295/149 256/307/118 280/335/125
f 247/295/149 280/335/125 274/325/147
f 218/262/150 224/271/111 256/307/118
f 218/262/150 256/307/118 247/295/149
f 199/239/151 203/246/104 224/271/111
f 199/239/151 224/271/111 218/262/150
f 174/210/152 171/206/97 203/246/104
f 174/210/152 203/246/104 199/239/151
f 144/177/153 138/169/85 171/206/97
f 144/177/153 171/206/97 174/210/152
f 112/141/131 107/134/82 138/169/85
f 112/141/131 138/169/85 144/177/153
f 335/390/154 343/398/155 364/419/156
f 335/390/154 364/419/156 345/400/157
f 343/398/155 353/408/158 370/425/159
f 343/398/155 370/425/159 364/419/156
f 353/408/158 360/415/160 375/430/161
f 353/408/158 375/430/161 370/425/159
f 360/415/160 355/410/162 368/423/163
f 360/415/160 368/423/163 375/430/161
f 355/410/162 348/403/164 363/418/165
f 355/410/162 363/418/165 368/423/163
f 348/403/164 340/395/166 347/402/167
f 348/403/164 347/402/167 363/418/165
f 345/400/157 364/419/156 372/427/168
f 345/400/157 372/427/168 352/407/169
f 364/419/156 370/425/159 380/435/170
f 364/419/156 380/435/170 372/427/168
f 370/425/159 375/430/161 383/438/171
f 370/425/159 383/438/171 380/435/170
f 375/430/161 368/423/163 378/433/172
f 375/430/161 378/433/172 383/438/171
f 368/423/163 363/418/165 369/424/173
f 368/423/163 369/424/173 378/433/172
f 363/418/165 347/402/167 356/411/174
f 363/418/165 356/411/174 369/424/173
f 352/407/169 372/427/168 377/432/175
f 352/407/169 377/432/175 358/413/176
f 372/427/168 380/435/170 385/440/177
f 372/427/168 385/440/177 377/432/175
f 380/435/170 383/438/171 386/441/178
f 380/435/170 386/441/178 385/440/177
f 383/438/171 378/433/172 382/437/179
f 383/438/171 382/437/179 386/441/178
f 378/433/172 369/424/173 374/429/180
f 378/433/172 374/429/180 382/437/179
f 369/424/173 356/411/174 361/416/181
f 369/424/173 361/416/181 374/429/180
f 358/413/176 377/432/175 373/428/182
f 358/413/176 373/428/182 351/406/183
f 377/432/175 385/440/177 381/436/184
f 377/432/175 381/436/184 373/428/182
f 385/440/177 386/441/178 384/439/185
f 385/440/177 384/439/185 381/436/184
f 386/441/178 382/437/179 379/434/186
f 386/441/178 379/434/186 384/439/185
f 382/437/179 374/429/180 367/422/187
f 382/437/179 367/422/187 379/434/186
f 374/429/180 361/416/181 354/409/188
f 374/429/180 354/409/188 367/422/187
f 351/406/183 373/428/182 365/420/189
f 351/406/183 365/420/189 346/401/190
f 373/428/182 381/436/184 371/426/191
f 373/428/182 371/426/191 365/420/189
f 381/436/184 384/439/185 376/431/192
f 381/436/184 376/431/192 371/426/191
f 384/439/185 379/434/186 366/421/193
f 384/439/185 366/421/193 376/431/192
f 379/434/186 367/422/187 362/417/194
f 379/434/186 362/417/194 366/421/193
f 367/422/187 354/409/188 344/399/195
f 367/422/187 344/399/195 362/417/194
f 346/401/190 365/420/189 349/404/196
f 346/401/190 349/404/196 341/396/197
f 365/420/189 371/426/191 357/412/198
f 365/420/189 357/412/198 349/404/196
f 371/426/191 376/431/192 359/414/199
f 371/426/191 359/414/199 357/412/198
f 376/431/192 366/421/193 350/405/200
f 376/431/192 350/405/200 359/414/199
f 366/421/193 362/417/194 342/397/201
f 366/421/193 342/397/201 350/405/200
f 362/417/194 344/399/195 336/391/202
f 362/417/194 336/391/202 342/397/201
f 306/361/148 310/365/146 335/390/154
f 306/361/148 335/390/154 311/366/203
f 310/365/146 318/373/145 343/398/155
f 310/365/146 343/398/155 335/390/154
f 318/373/145 329/384/144 353/408/158
f 318/373/145 353/408/158 343/398/155
f 329/384/144 337/392/143 360/415/160
f 329/384/144 360/415/160 353/408/158
f 337/392/143 334/389/142 355/410/162
f 337/392/143 355/410/162 360/415/160
f 334/389/142 324/379/141 348/403/164
f 334/389/142 348/403/164 355/410/162
f 324/379/141 317/372/140 340/395/166
f 324/379/141 340/395/166 348/403/164
f 317/372/140 309/364/139 315/370/204
f 317/372/140 315/370/204 340/395/166
f 340/395/166 315/370/204 323/378/205
f 340/395/166 323/378/205 347/402/167
f 347/402/167 323/378/205 332/387/206
f 347/402/167 332/387/206 356/411/174
f 356/411/174 332/387/206 339/394/207
f 356/411/174 339/394/207 361/416/181
f 361/416/181 339/394/207 331/386/208
f 361/416/181 331/386/208 354/409/188
f 354/409/188 331/386/208 322/377/209
f 354/409/188 322/377/209 344/399/195
f 344/399/195 322/377/209 314/369/210
f 344/399/195 314/369/210 336/391/202
f 336/391/202 314/369/210 308/363/211
f 336/391/202 308/363/211 313/368/212
f 342/397/201 336/391/202 313/368/212
f 342/397/201 313/368/212 321/376/213
f 350/405/200 342/397/201 321/376/213
f 350/405/200 321/376/213 330/385/214
f 359/414/199 350/405/200 330/385/214
f 359/414/199 330/385/214 338/393/215
f 357/412/198 359/414/199 338/393/215
f 357/412/198 338/393/215 333/388/216
f 349/404/196 357/412/198 333/388/216
f 349/404/196 333/388/216 325/380/217
f 341/396/197 349/404/196 325/380/217
f 341/396/197 325/380/217 316/371/218
f 312/367/219 341/396/197 316/371/218
f 312/367/219 316/371/218 307/362/220
f 319/374/221 346/401/190 341/396/197
f 319/374/221 341/396/197 312/367/219
f 326/381/222 351/406/183 346/401/190
f 326/381/222 346/401/190 319/374/221
f 328/383/223 358/413/176 351/406/183
f 328/383/223 351/406/183 326/381/222
f 327/382/224 352/407/169 358/413/176
f 327/382/224 358/413/176 328/383/223
f 320/375/225 345/400/157 352/407/169
f 320/375/225 352/407/169 327/382/224
f 311/366/203 335/390/154 345/400/157
f 311/366/203 345/400/157 320/375/225
f 283/338/226 292/347/227 259/310/228
f 283/338/226 259/310/228 253/304/229
f 292/347/227 298/353/230 267/318/231
f 292/347/227 267/318/231 259/310/228
f 298/353/230 304/359/232 270/321/233
f 298/353/230 270/321/233 267/318/231
f 304/359/232 301/356/234 268/319/235
f 304/359/232 268/319/235 270/321/233
f 301/356/234 295/350/236 263/314/237
f 301/356/234 263/314/237 268/319/235
f 295/350/236 284/339/238 257/308/239
f 295/350/236 257/308/239 263/314/237
f 253/304/229 259/310/228 226/273/240
f 253/304/229 226/273/240 220/266/241
f 259/310/228 267/318/231 234/281/242
f 259/310/228 234/281/242 226/273/240
f 267/318/231 270/321/233 237/284/243
f 267/318/231 237/284/243 234/281/242
f 270/321/233 268/319/235 236/283/244
f 270/321/233 236/283/244 237/284/243
f 268/319/235 263/314/237 230/277/245
f 268/319/235 230/277/245 236/283/244
f 263/314/237 257/308/239 225/272/246
f 263/314/237 225/272/246 230/277/245
f 220/266/241 226/273/240 191/230/247
f 220/266/241 191/230/247 194/233/248
f 226/273/240 234/281/242 184/223/249
f 226/273/240 184/223/249 191/230/247
f 234/281/242 237/284/243 183/222/250
f 234/281/242 183/222/250 184/223/249
f 237/284/243 236/283/244 185/224/251
f 237/284/243 185/224/251 183/222/250
f 236/283/244 230/277/245 197/237/252
f 236/283/244 197/237/252 185/224/251
f 230/277/245 225/272/246 201/243/253
f 230/277/245 201/243/253 197/237/252
f 194/233/248 191/230/247 158/193/254
f 194/233/248 158/193/254 170/205/255
f 191/230/247 184/223/249 148/183/256
f 191/230/247 148/183/256 158/193/254
f 184/223/249 183/222/250 146/181/257
f 184/223/249 146/181/257 148/183/256
f 183/222/250 185/224/251 147/182/258
f 183/222/250 147/182/258 146/181/257
f 185/224/251 197/237/252 155/190/259
f 185/224/251 155/190/259 147/182/258
f 197/237/252 201/243/253 165/200/260
f 197/237/252 165/200/260 155/190/259
f 170/205/255 158/193/254 130/161/261
f 170/205/255 130/161/261 140/171/262
f 158/193/254 148/183/256 117/148/263
f 158/193/254 117/148/263 130/161/261
f 148/183/256 146/181/257 114/145/264
f 148/183/256 114/145/264 117/148/263
f 146/181/257 147/182/258 115/146/265
f 146/181/257 115/146/265 114/145/264
f 147/182/258 155/190/259 126/157/266
f 147/182/258 126/157/266 115/146/265
f 155/190/259 165/200/260 134/165/267
f 155/190/259 134/165/267 126/157/266
f 140/171/262 130/161/261 100/127/268
f 140/171/262 100/127/268 108/135/269
f 130/161/261 117/148/263 87/114/270
f 130/161/261 87/114/270 100/127/268
f 117/148/263 114/145/264 82/109/271
f 117/148/263 82/109/271 87/114/270
f 114/145/264 115/146/265 84/111/272
f 114/145/264 84/111/272 82/109/271
f 115/146/265 126/157/266 94/121/273
f 115/146/265 94/121/273 84/111/272
f 126/157/266 134/165/267 102/129/274
f 126/157/266 102/129/274 94/121/273
f 307/362/220 316/371/218 283/338/226
f 307/362/220 283/338/226 275/327/275
f 316/371/218 325/380/217 292/347/227
f 316/371/218 292/347/227 283/338/226
f 325/380/217 333/388/216 298/353/230
f 325/380/217 298/353/230 292/347/227
f 333/388/216 338/393/215 304/359/232
f 333/388/216 304/359/232 298/353/230
f 338/393/215 330/385/214 301/356/234
f 338/393/215 301/356/234 304/359/232
f 330/385/214 321/376/213 295/350/236
f 330/385/214 295/350/236 301/356/234
f 321/376/213 313/368/212 284/339/238
f 321/376/213 284/339/238 295/350/236
f 313/368/212 308/363/211 276/329/276
f 313/368/212 276/329/276 284/339/238
f 284/339/238 276/329/276 251/300/277
f 284/339/238 251/300/277 257/308/239
f 257/308/239 251/300/277 219/264/278
f 257/308/239 219/264/278 225/272/246
f 225/272/246 219/264/278 200/241/279
f 225/272/246 200/241/279 201/243/253
f 201/243/253 200/241/279 172/207/280
f 201/243/253 172/207/280 165/200/260
f 165/200/260 172/207/280 141/172/281
f 165/200/260 141/172/281 134/165/267
f 134/165/267 141/172/281 110/137/282
f 134/165/267 110/137/282 102/129/274
f 102/129/274 110/137/282 78/100/59
f 102/129/274 78/100/59 70/86/58
f 94/121/273 102/129/274 70/86/58
f 94/121/273 70/86/58 62/72/57
f 84/111/272 94/121/273 62/72/57
f 84/111/272 62/72/57 53/57/56
f 82/109/271 84/111/272 53/57/56
f 82/109/271 53/57/56 49/51/55
f 87/114/270 82/109/271 49/51/55
f 87/114/270 49/51/55 59/66/54
f 100/127/268 87/114/270 59/66/54
f 100/127/268 59/66/54 68/82/53
f 108/135/269 100/127/268 68/82/53
f 108/135/269 68/82/53 76/96/51
f 113/143/283 108/135/269 76/96/51
f 113/143/283 76/96/51 81/107/50
f 145/179/284 140/171/262 108/135/269
f 145/179/284 108/135/269 113/143/283
f 177/215/285 170/205/255 140/171/262
f 177/215/285 140/171/262 145/179/284
f 196/235/286 194/233/248 170/205/255
f 196/235/286 170/205/255 177/215/285
f 217/260/287 220/266/241 194/233/248
f 217/260/287 194/233/248 196/235/286
f 244/291/288 253/304/229 220/266/241
f 244/291/288 220/266/241 217/260/287
f 275/327/275 283/338/226 253/304/229
f 275/327/275 253/304/229 244/291/288
f 106/133/289 137/168/290 129/160/291
f 106/133/289 129/160/291 97/124/292
f 137/168/290 168/203/293 159/194/294
f 137/168/290 159/194/294 129/160/291
f 168/203/293 195/234/295 181/220/296
f 168/203/293 181/220/296 159/194/294
f 195/234/295 216/259/297 214/257/298
f 195/234/295 214/257/298 181/220/296
f 216/259/297 243/290/299 246/294/300
f 216/259/297 246/294/300 214/257/298
f 243/290/299 279/334/301 287/342/302
f 243/290/299 287/342/302 246/294/300
f 97/124/292 129/160/291 122/153/303
f 97/124/292 122/153/303 90/117/304
f 129/160/291 159/194/294 151/186/305
f 129/160/291 151/186/305 122/153/303
f 159/194/294 181/220/296 179/218/306
f 159/194/294 179/218/306 151/186/305
f 181/220/296 214/257/298 211/254/307
f 181/220/296 211/254/307 179/218/306
f 214/257/298 246/294/300 248/297/308
f 214/257/298 248/297/308 211/254/307
f 246/294/300 287/342/302 289/344/309
f 246/294/300 289/344/309 248/297/308
f 90/117/304 122/153/303 118/149/310
f 90/117/304 118/149/310 86/113/311
f 122/153/303 151/186/305 150/185/312
f 122/153/303 150/185/312 118/149/310
f 151/186/305 179/218/306 178/217/313
f 151/186/305 178/217/313 150/185/312
f 179/218/306 211/254/307 210/253/314
f 179/218/306 210/253/314 178/217/313
f 211/254/307 248/297/308 250/299/315
f 211/254/307 250/299/315 210/253/314
f 248/297/308 289/344/309 291/346/316
f 248/297/308 291/346/316 250/299/315
f 86/113/311 118/149/310 123/154/317
f 86/113/311 123/154/317 93/120/318
f 118/149/310 150/185/312 154/189/319
f 118/149/310 154/189/319 123/154/317
f 150/185/312 178/217/313 180/219/320
f 150/185/312 180/219/320 154/189/319
f 178/217/313 210/253/314 212/255/321
f 178/217/313 212/255/321 180/219/320
f 210/253/314 250/299/315 249/298/322
f 210/253/314 249/298/322 212/255/321
f 250/299/315 291/346/316 288/343/323
f 250/299/315 288/343/323 249/298/322
f 93/120/318 123/154/317 133/164/324
f 93/120/318 133/164/324 101/128/325
f 123/154/317 154/189/319 163/198/326
f 123/154/317 163/198/326 133/164/324
f 154/189/319 180/219/320 182/221/327
f 154/189/319 182/221/327 163/198/326
f 180/219/320 212/255/321 213/256/328
f 180/219/320 213/256/328 182/221/327
f 212/255/321 249/298/322 245/293/329
f 212/255/321 245/293/329 213/256/328
f 249/298/322 288/343/323 286/341/330
f 249/298/322 286/341/330 245/293/329
f 101/128/325 133/164/324 142/174/331
f 101/128/325 142/174/331 109/136/332
f 133/164/324 163/198/326 173/209/333
f 133/164/324 173/209/333 142/174/331
f 163/198/326 182/221/327 198/238/334
f 163/198/326 198/238/334 173/209/333
f 182/221/327 213/256/328 215/258/335
f 182/221/327 215/258/335 198/238/334
f 213/256/328 245/293/329 242/289/336
f 213/256/328 242/289/336 215/258/335
f 245/293/329 286/341/330 278/333/337
f 245/293/329 278/333/337 242/289/336
f 80/105/76 112/142/131 106/133/289
f 80/105/76 106/133/289 74/93/75
f 112/142/131 144/178/153 137/168/290
f 112/142/131 137/168/290 106/133/289
f 144/178/153 174/211/152 168/203/293
f 144/178/153 168/203/293 137/168/290
f 174/211/152 199/240/151 195/234/295
f 174/211/152 195/234/295 168/203/293
f 199/240/151 218/263/150 216/259/297
f 199/240/151 216/259/297 195/234/295
f 218/263/150 247/296/149 243/290/299
f 218/263/150 243/290/299 216/259/297
f 247/296/149 274/326/147 279/334/301
f 247/296/149 279/334/301 243/290/299
f 274/326/147 306/361/148 311/366/203
f 274/326/147 311/366/203 279/334/301
f 279/334/301 311/366/203 320/375/225
f 279/334/301 320/375/225 287/342/302
f 287/342/302 320/375/225 327/382/224
f 287/342/302 327/382/224 289/344/309
f 289/344/309 327/382/224 328/383/223
f 289/344/309 328/383/223 291/346/316
f 291/346/316 328/383/223 326/381/222
f 291/346/316 326/381/222 288/343/323
f 288/343/323 326/381/222 319/374/221
f 288/343/323 319/374/221 286/341/330
f 286/341/330 319/374/221 312/367/219
f 286/341/330 312/367/219 278/333/337
f 278/333/337 312/367/219 307/362/220
f 278/333/337 307/362/220 275/328/275
f 242/289/336 278/333/337 275/328/275
f 242/289/336 275/328/275 244/292/288
f 215/258/335 242/289/336 244/292/288
f 215/258/335 244/292/288 217/261/287
f 198/238/334 215/258/335 217/261/287
f 198/238/334 217/261/287 196/236/286
f 173/209/333 198/238/334 196/236/286
f 173/209/333 196/236/286 177/216/285
f 142/174/331 173/209/333 177/216/285
f 142/174/331 177/216/285 145/180/284
f 109/136/332 142/174/331 145/180/284
f 109/136/332 145/180/284 113/144/283
f 77/98/52 109/136/332 113/144/283
f 77/98/52 113/144/283 81/108/50
f 69/84/81 101/128/325 109/136/332
f 69/84/81 109/136/332 77/98/52
f 61/70/80 93/120/318 101/128/325
f 61/70/80 101/128/325 69/84/81
f 52/55/79 86/113/311 93/120/318
f 52/55/79 93/120/318 61/70/80
f 60/68/78 90/117/304 86/113/311
f 60/68/78 86/113/311 52/55/79
f 67/80/77 97/124/292 90/117/304
f 67/80/77 90/117/304 60/68/78
f 74/93/75 106/133/289 97/124/292
f 74/93/75 97/124/292 67/80/77
f 282/337/338 255/306/339 261/312/340
f 282/337/338 261/312/340 294/349/341
f 255/306/339 223/270/342 228/275/343
f 255/306/339 228/275/343 261/312/340
f 223/270/342 193/232/344 190/229/345
f 223/270/342 190/229/345 228/275/343
f 193/232/344 166/201/346 156/191/347
f 193/232/344 156/191/347 190/229/345
f 166/201/346 135/166/348 127/158/349
f 166/201/346 127/158/349 156/191/347
f 135/166/348 103/130/350 95/122/351
f 135/166/348 95/122/351 127/158/349
f 294/349/341 261/312/340 266/317/352
f 294/349/341 266/317/352 300/355/353
f 261/312/340 228/275/343 232/279/354
f 261/312/340 232/279/354 266/317/352
f 228/275/343 190/229/345 189/228/355
f 228/275/343 189/228/355 232/279/354
f 190/229/345 156/191/347 153/188/356
f 190/229/345 153/188/356 189/228/355
f 156/191/347 127/158/349 121/152/357
f 156/191/347 121/152/357 153/188/356
f 127/158/349 95/122/351 88/115/358
f 127/158/349 88/115/358 121/152/357
f 300/355/353 266/317/352 269/320/359
f 300/355/353 269/320/359 303/358/360
f 266/317/352 232/279/354 235/282/361
f 266/317/352 235/282/361 269/320/359
f 232/279/354 189/228/355 188/227/362
f 232/279/354 188/227/362 235/282/361
f 189/228/355 153/188/356 149/184/363
f 189/228/355 149/184/363 188/227/362
f 153/188/356 121/152/357 116/147/364
f 153/188/356 116/147/364 149/184/363
f 121/152/357 88/115/358 83/110/365
f 121/152/357 83/110/365 116/147/364
f 303/358/360 269/320/359 265/316/366
f 303/358/360 265/316/366 299/354/367
f 269/320/359 235/282/361 231/278/368
f 269/320/359 231/278/368 265/316/366
f 235/282/361 188/227/362 187/226/369
f 235/282/361 187/226/369 231/278/368
f 188/227/362 149/184/363 152/187/370
f 188/227/362 152/187/370 187/226/369
f 149/184/363 116/147/364 120/151/371
f 149/184/363 120/151/371 152/187/370
f 116/147/364 83/110/365 89/116/372
f 116/147/364 89/116/372 120/151/371
f 299/354/367 265/316/366 260/311/373
f 299/354/367 260/311/373 293/348/374
f 265/316/366 231/278/368 227/274/375
f 265/316/366 227/274/375 260/311/373
f 231/278/368 187/226/369 186/225/376
f 231/278/368 186/225/376 227/274/375
f 187/226/369 152/187/370 157/192/377
f 187/226/369 157/192/377 186/225/376
f 152/187/370 120/151/371 128/159/378
f 152/187/370 128/159/378 157/192/377
f 120/151/371 89/116/372 96/123/379
f 120/151/371 96/123/379 128/159/378
f 293/348/374 260/311/373 254/305/380
f 293/348/374 254/305/380 281/336/381
f 260/311/373 227/274/375 222/269/382
f 260/311/373 222/269/382 254/305/380
f 227/274/375 186/225/376 192/231/383
f 227/274/375 192/231/383 222/269/382
f 186/225/376 157/192/377 167/202/384
f 186/225/376 167/202/384 192/231/383
f 157/192/377 128/159/378 136/167/385
f 157/192/377 136/167/385 167/202/384
f 128/159/378 96/123/379 104/131/386
f 128/159/378 104/131/386 136/167/385
f 309/364/139 277/332/138 282/337/338
f 309/364/139 282/337/338 315/370/204
f 277/332/138 252/303/137 255/306/339
f 277/332/138 255/306/339 282/337/338
f 252/303/137 221/268/136 223/270/342
f 252/303/137 223/270/342 255/306/339
f 221/268/136 202/245/135 193/232/344
f 221/268/136 193/232/344 223/270/342
f 202/245/135 175/213/134 166/201/346
f 202/245/135 166/201/346 193/232/344
f 175/213/134 143/176/133 135/166/348
f 175/213/134 135/166/348 166/201/346
f 143/176/133 111/140/132 103/130/350
f 143/176/133 103/130/350 135/166/348
f 111/140/132 79/103/67 71/88/66
f 111/140/132 71/88/66 103/130/350
f 103/130/350 71/88/66 63/74/65
f 103/130/350 63/74/65 95/122/351
f 95/122/351 63/74/65 56/62/64
f 95/122/351 56/62/64 88/115/358
f 88/115/358 56/62/64 48/49/63
f 88/115/358 48/49/63 83/110/365
f 83/110/365 48/49/63 55/60/62
f 83/110/365 55/60/62 89/116/372
f 89/116/372 55/60/62 64/76/61
f 89/116/372 64/76/61 96/123/379
f 96/123/379 64/76/61 73/91/60
f 96/123/379 73/91/60 104/131/386
f 104/131/386 73/91/60 78/101/59
f 104/131/386 78/101/59 110/138/282
f 136/167/385 104/131/386 110/138/282
f 136/167/385 110/138/282 141/173/281
f 167/202/384 136/167/385 141/173/281
f 167/202/384 141/173/281 172/208/280
f 192/231/383 167/202/384 172/208/280
f 192/231/383 172/208/280 200/242/279
f 222/269/382 192/231/383 200/242/279
f 222/269/382 200/242/279 219/265/278
f 254/305/380 222/269/382 219/265/278
f 254/305/380 219/265/278 251/301/277
f 281/336/381 254/305/380 251/301/277
f 281/336/381 251/301/277 276/330/276
f 314/369/210 281/336/381 276/330/276
f 314/369/210 276/330/276 308/363/211
f 322/377/209 293/348/374 281/336/381
f 322/377/209 281/336/381 314/369/210
f 331/386/208 299/354/367 293/348/374
f 331/386/208 293/348/374 322/377/209
f 339/394/207 303/358/360 299/354/367
f 339/394/207 299/354/367 331/386/208
f 332/387/206 300/355/353 303/358/360
f 332/387/206 303/358/360 339/394/207
f 323/378/205 294/349/341 300/355/353
f 323/378/205 300/355/353 332/387/206
f 315/370/204 282/337/338 294/349/341
f 315/370/204 294/349/341 323/378/205
